<?xml version="1.0" encoding="UTF-8" standalone="no"?>
<svg width="743px" height="743px" viewBox="0 0 743 743">
    <title>dartsBoard</title>
    <defs></defs>
    <g id="game---501" stroke="none" stroke-width="1" fill="none" fill-rule="evenodd" sketch:type="MSPage">
        <g id="iPad-Landscape" sketch:type="MSArtboardGroup" transform="translate(-259.000000, -8.000000)">
            <g id="dartsBoard" sketch:type="MSLayerGroup" transform="translate(260.000000, 9.000000)">
                <g id="db_20" transform="translate(311.819653, 0.000000)">
                    <path d="M58.3907021,370.92602 L116.358418,4.56401119 C97.3744119,1.57128218 77.9170324,-1.98951966e-13 58.0910314,-1.98951966e-13 C38.3273514,-1.98951966e-13 18.9296408,1.55934839 0,4.53483971 L58.3907021,370.92602 Z" id="db_20_full" stroke="#FFFFFF" stroke-width="2" fill="#000000" sketch:type="MSShapeGroup"></path>
                    <path d="M106.69242,64.7341271 C90.8280108,62.2348216 74.5677528,60.9237106 58.0003479,60.9237106 C41.5176732,60.9237106 25.3381738,62.2202831 9.55055158,64.6944766 L-0.000132390961,4.8657817 C18.9000013,1.90124324 38.2661512,0.345620512 58.0003479,0.345620512 C77.7954445,0.345620512 97.2224942,1.91181671 116.176908,4.89485876 L106.69242,64.7341271 Z" id="db_20_double" stroke="#FFFFFF" stroke-width="2" fill="#B01900" sketch:type="MSShapeGroup"></path>
                    <path d="M9.55055158,64.6940801 L9.55055158,64.6940801 C25.3381738,62.2198866 41.5176732,60.923314 58.0003479,60.923314 C74.5677528,60.923314 90.8280108,62.2357468 106.69242,64.7337306 L97.3668003,123.575127 C84.3461493,121.493474 70.9971686,120.396476 57.3900256,120.396476 C44.3045029,120.396476 31.4546362,121.399634 18.9105926,123.32665 L9.55055158,64.6940801 Z" id="db_20_single_outer" stroke="#FFFFFF" stroke-width="2" fill="#1E1E1E" sketch:type="MSShapeGroup"></path>
                    <path d="M97.3668003,123.574863 C84.3461493,121.49321 70.9971686,120.396211 57.3900256,120.396211 C44.3045029,120.396211 31.4546362,121.39937 18.9105926,123.327708 L28.3924332,182.720247 C37.8464718,181.280932 47.5308707,180.532859 57.3900256,180.532859 C67.7946312,180.532859 77.9993266,181.377415 87.9524791,182.979297 L97.3668003,123.574863 Z" id="db_20_triple" stroke="#FFFFFF" stroke-width="2" fill="#B01900" sketch:type="MSShapeGroup"></path>
                    <path d="M87.9520819,182.979033 C77.9989294,181.378473 67.7942341,180.532595 57.3896284,180.532595 C47.5304735,180.532595 37.8473985,181.280668 28.3920361,182.721304 L28.3920361,182.721304 L58.2991543,370.071412 L87.9520819,182.979033 Z" id="db_20_single_inner" stroke="#FFFFFF" stroke-width="2" fill="#1E1E1E" sketch:type="MSShapeGroup"></path>
                    <text id="db_txt_20" sketch:type="MSTextLayer" font-family="Helvetica" font-size="36.2018223" font-weight="normal" fill="#FFFFFF">
                        <tspan x="38.1764671" y="101.507543">20</tspan>
                    </text>
                    <text id="x2" sketch:type="MSTextLayer" font-family="Helvetica" font-size="23.0375233" font-weight="normal" fill="#FFFFFF">
                        <tspan x="46.0750465" y="39.1774453">x2</tspan>
                    </text>
                    <text id="x3" sketch:type="MSTextLayer" font-family="Helvetica" font-size="23.0375233" font-weight="normal" fill="#FFFFFF">
                        <tspan x="46.0750465" y="158.325326">x3</tspan>
                    </text>
                </g>
                <g id="db_1" transform="translate(427.250895, 194.520460) rotate(18.000000) translate(-427.250895, -194.520460) translate(368.998872, 9.056299)">
                    <path d="M58.3907021,370.92602 L116.358418,4.56401119 C97.3744119,1.57128218 77.9170324,-1.13686838e-13 58.0910314,-1.13686838e-13 C38.3273514,-1.13686838e-13 18.9296408,1.55934839 4.97379915e-14,4.53483971 L58.3907021,370.92602 Z" id="db_1_full" stroke="#FFFFFF" stroke-width="2" fill="#000000" sketch:type="MSShapeGroup"></path>
                    <path d="M106.69242,64.7341271 C90.8280108,62.2348216 74.5677528,60.9237106 58.0003479,60.9237106 C41.5176732,60.9237106 25.3381738,62.2202831 9.55055158,64.6944766 L-0.000132390962,4.8657817 C18.9000013,1.90124324 38.2661512,0.345620512 58.0003479,0.345620512 C77.7954445,0.345620512 97.2224942,1.91181671 116.176908,4.89485876 L106.69242,64.7341271 Z" id="db_1_double" stroke="#FFFFFF" stroke-width="2" fill="#00591E" sketch:type="MSShapeGroup"></path>
                    <path d="M9.55055158,64.6940801 L9.55055158,64.6940801 C25.3381738,62.2198866 41.5176732,60.923314 58.0003479,60.923314 C74.5677528,60.923314 90.8280108,62.2357468 106.69242,64.7337306 L97.3668003,123.575127 C84.3461493,121.493474 70.9971686,120.396476 57.3900256,120.396476 C44.3045029,120.396476 31.4546362,121.399634 18.9105926,123.32665 L9.55055158,64.6940801 Z" id="db_1_single_outer" stroke="#FFFFFF" stroke-width="2" fill="#7D7E6D" sketch:type="MSShapeGroup"></path>
                    <path d="M97.3668003,123.574863 C84.3461493,121.49321 70.9971686,120.396211 57.3900256,120.396211 C44.3045029,120.396211 31.4546362,121.39937 18.9105926,123.327708 L28.3924332,182.720247 C37.8464718,181.280932 47.5308707,180.532859 57.3900256,180.532859 C67.7946312,180.532859 77.9993266,181.377415 87.9524791,182.979297 L97.3668003,123.574863 Z" id="db_1_triple" stroke="#FFFFFF" stroke-width="2" fill="#00591E" sketch:type="MSShapeGroup"></path>
                    <path d="M87.9520819,182.979033 C77.9989294,181.378473 67.7942341,180.532595 57.3896284,180.532595 C47.5304735,180.532595 37.8473985,181.280668 28.3920361,182.721304 L28.3920361,182.721304 L58.2991543,370.071412 L87.9520819,182.979033 Z" id="db_1_single_inner" stroke="#FFFFFF" stroke-width="2" fill="#7D7E6D" sketch:type="MSShapeGroup"></path>
                    <text id="db_txt_1" sketch:type="MSTextLayer" font-family="Helvetica" font-size="36.2018223" font-weight="normal" fill="#FFFFFF">
                        <tspan x="46.7429411" y="101.507543">1</tspan>
                    </text>
                    <text id="x2" sketch:type="MSTextLayer" font-family="Helvetica" font-size="23.0375233" font-weight="normal" fill="#FFFFFF">
                        <tspan x="46.0750465" y="39.1774453">x2</tspan>
                    </text>
                    <text id="x3" sketch:type="MSTextLayer" font-family="Helvetica" font-size="23.0375233" font-weight="normal" fill="#FFFFFF">
                        <tspan x="46.0750465" y="158.325326">x3</tspan>
                    </text>
                </g>
                <g id="db_18" transform="translate(478.833013, 220.802862) rotate(36.000000) translate(-478.833013, -220.802862) translate(420.580990, 35.338701)">
                    <path d="M58.3907021,370.92602 L116.358418,4.56401119 C97.3744119,1.57128218 77.9170324,-1.98951966e-13 58.0910314,-1.98951966e-13 C38.3273514,-1.98951966e-13 18.9296408,1.55934839 0,4.53483971 L58.3907021,370.92602 Z" id="db_18_full" stroke="#FFFFFF" stroke-width="2" fill="#000000" sketch:type="MSShapeGroup"></path>
                    <path d="M106.69242,64.7341271 C90.8280108,62.2348216 74.5677528,60.9237106 58.0003479,60.9237106 C41.5176732,60.9237106 25.3381738,62.2202831 9.55055158,64.6944766 L-0.00013239096,4.8657817 C18.9000013,1.90124324 38.2661512,0.345620512 58.0003479,0.345620512 C77.7954445,0.345620512 97.2224942,1.91181671 116.176908,4.89485876 L106.69242,64.7341271 Z" id="db_18_double" stroke="#FFFFFF" stroke-width="2" fill="#B01900" sketch:type="MSShapeGroup"></path>
                    <path d="M9.55055158,64.6940801 L9.55055158,64.6940801 C25.3381738,62.2198866 41.5176732,60.923314 58.0003479,60.923314 C74.5677528,60.923314 90.8280108,62.2357468 106.69242,64.7337306 L97.3668003,123.575127 C84.3461493,121.493474 70.9971686,120.396476 57.3900256,120.396476 C44.3045029,120.396476 31.4546362,121.399634 18.9105926,123.32665 L9.55055158,64.6940801 Z" id="db_18_single_outer" stroke="#FFFFFF" stroke-width="2" fill="#1E1E1E" sketch:type="MSShapeGroup"></path>
                    <path d="M97.3668003,123.574863 C84.3461493,121.49321 70.9971686,120.396211 57.3900256,120.396211 C44.3045029,120.396211 31.4546362,121.39937 18.9105926,123.327708 L28.3924332,182.720247 C37.8464718,181.280932 47.5308707,180.532859 57.3900256,180.532859 C67.7946312,180.532859 77.9993266,181.377415 87.9524791,182.979297 L97.3668003,123.574863 Z" id="db_18_triple" stroke="#FFFFFF" stroke-width="2" fill="#B01900" sketch:type="MSShapeGroup"></path>
                    <path d="M87.9520819,182.979033 C77.9989294,181.378473 67.7942341,180.532595 57.3896284,180.532595 C47.5304735,180.532595 37.8473985,181.280668 28.3920361,182.721304 L28.3920361,182.721304 L58.2991543,370.071412 L87.9520819,182.979033 Z" id="db_18_single_inner" stroke="#FFFFFF" stroke-width="2" fill="#1E1E1E" sketch:type="MSShapeGroup"></path>
                    <text id="db_txt_18" sketch:type="MSTextLayer" font-family="Helvetica" font-size="36.2018223" font-weight="normal" sketch:alignment="middle" fill="#FFFFFF">
                        <tspan x="38.3746808" y="101.507543">18</tspan>
                    </text>
                    <text id="x2" sketch:type="MSTextLayer" font-family="Helvetica" font-size="23.0375233" font-weight="normal" fill="#FFFFFF">
                        <tspan x="46.0750465" y="39.1774453">x2</tspan>
                    </text>
                    <text id="x3" sketch:type="MSTextLayer" font-family="Helvetica" font-size="23.0375233" font-weight="normal" fill="#FFFFFF">
                        <tspan x="46.0750465" y="158.325326">x3</tspan>
                    </text>
                </g>
                <g id="db_4" transform="translate(519.768814, 261.738663) rotate(54.000000) translate(-519.768814, -261.738663) translate(461.516791, 76.274501)">
                    <path d="M58.3907021,370.92602 L116.358418,4.56401119 C97.3744119,1.57128218 77.9170324,1.98951966e-13 58.0910314,1.98951966e-13 C38.3273514,1.98951966e-13 18.9296408,1.55934839 -2.91322522e-13,4.53483971 L58.3907021,370.92602 Z" id="db_4_full" stroke="#FFFFFF" stroke-width="2" fill="#000000" sketch:type="MSShapeGroup"></path>
                    <path d="M106.69242,64.7341271 C90.8280108,62.2348216 74.5677528,60.9237106 58.0003479,60.9237106 C41.5176732,60.9237106 25.3381738,62.2202831 9.55055158,64.6944766 L-0.000132390962,4.8657817 C18.9000013,1.90124324 38.2661512,0.345620512 58.0003479,0.345620512 C77.7954445,0.345620512 97.2224942,1.91181671 116.176908,4.89485876 L106.69242,64.7341271 Z" id="db_4_double" stroke="#FFFFFF" stroke-width="2" fill="#00591E" sketch:type="MSShapeGroup"></path>
                    <path d="M9.55055158,64.6940801 C25.3381738,62.2198866 41.5176732,60.923314 58.0003479,60.923314 C74.5677528,60.923314 90.8280108,62.2357468 106.69242,64.7337306 L97.3668003,123.575127 C84.3461493,121.493474 70.9971686,120.396476 57.3900256,120.396476 C44.3045029,120.396476 31.4546362,121.399634 18.9105926,123.32665 L9.55055158,64.6940801 Z" id="db_4_single_outer" stroke="#FFFFFF" stroke-width="2" fill="#7D7E6D" sketch:type="MSShapeGroup"></path>
                    <path d="M97.3668003,123.574863 C84.3461493,121.49321 70.9971686,120.396211 57.3900256,120.396211 C44.3045029,120.396211 31.4546362,121.39937 18.9105926,123.327708 L28.3924332,182.720247 C37.8464718,181.280932 47.5308707,180.532859 57.3900256,180.532859 C67.7946312,180.532859 77.9993266,181.377415 87.9524791,182.979297 L97.3668003,123.574863 Z" id="db_4_triple" stroke="#FFFFFF" stroke-width="2" fill="#00591E" sketch:type="MSShapeGroup"></path>
                    <path d="M87.9520819,182.979033 C77.9989294,181.378473 67.7942341,180.532595 57.3896284,180.532595 C47.5304735,180.532595 37.8473985,181.280668 28.3920361,182.721304 L28.3920361,182.721304 L58.2991543,370.071412 L87.9520819,182.979033 Z" id="db_4_single_inner" stroke="#FFFFFF" stroke-width="2" fill="#7D7E6D" sketch:type="MSShapeGroup"></path>
                    <text id="db_txt_4" sketch:type="MSTextLayer" font-family="Helvetica" font-size="36.2018223" font-weight="normal" sketch:alignment="middle" fill="#FFFFFF">
                        <tspan x="48.0718323" y="100.96185">4</tspan>
                    </text>
                    <text id="x2" sketch:type="MSTextLayer" font-family="Helvetica" font-size="23.0375233" font-weight="normal" fill="#FFFFFF">
                        <tspan x="46.0750465" y="39.1774453">x2</tspan>
                    </text>
                    <text id="x3" sketch:type="MSTextLayer" font-family="Helvetica" font-size="23.0375233" font-weight="normal" fill="#FFFFFF">
                        <tspan x="46.0750465" y="158.325326">x3</tspan>
                    </text>
                </g>
                <g id="db_13" transform="translate(546.051216, 313.320781) rotate(72.000000) translate(-546.051216, -313.320781) translate(487.799193, 127.856620)">
                    <path d="M58.3907021,370.92602 L116.358418,4.56401119 C97.3744119,1.57128218 77.9170324,-1.98951966e-13 58.0910314,-1.98951966e-13 C38.3273514,-1.98951966e-13 18.9296408,1.55934839 0,4.53483971 L58.3907021,370.92602 Z" id="db_13_full" stroke="#FFFFFF" stroke-width="2" fill="#000000" sketch:type="MSShapeGroup"></path>
                    <path d="M106.69242,64.7341271 C90.8280108,62.2348216 74.5677528,60.9237106 58.0003479,60.9237106 C41.5176732,60.9237106 25.3381738,62.2202831 9.55055158,64.6944766 L-0.000132390962,4.8657817 C18.9000013,1.90124324 38.2661512,0.345620512 58.0003479,0.345620512 C77.7954445,0.345620512 97.2224942,1.91181671 116.176908,4.89485876 L106.69242,64.7341271 Z" id="db_13_double" stroke="#FFFFFF" stroke-width="2" fill="#B01900" sketch:type="MSShapeGroup"></path>
                    <path d="M9.55055158,64.6940801 L9.55055158,64.6940801 C25.3381738,62.2198866 41.5176732,60.923314 58.0003479,60.923314 C74.5677528,60.923314 90.8280108,62.2357468 106.69242,64.7337306 L97.3668003,123.575127 C84.3461493,121.493474 70.9971686,120.396476 57.3900256,120.396476 C44.3045029,120.396476 31.4546362,121.399634 18.9105926,123.32665 L9.55055158,64.6940801 Z" id="db_13_single_outer" stroke="#FFFFFF" stroke-width="2" fill="#1E1E1E" sketch:type="MSShapeGroup"></path>
                    <path d="M97.3668003,123.574863 C84.3461493,121.49321 70.9971686,120.396211 57.3900256,120.396211 C44.3045029,120.396211 31.4546362,121.39937 18.9105926,123.327708 L28.3924332,182.720247 C37.8464718,181.280932 47.5308707,180.532859 57.3900256,180.532859 C67.7946312,180.532859 77.9993266,181.377415 87.9524791,182.979297 L97.3668003,123.574863 Z" id="db_13_triple" stroke="#FFFFFF" stroke-width="2" fill="#B01900" sketch:type="MSShapeGroup"></path>
                    <path d="M87.9520819,182.979033 C77.9989294,181.378473 67.7942341,180.532595 57.3896284,180.532595 C47.5304735,180.532595 37.8473985,181.280668 28.3920361,182.721304 L28.3920361,182.721304 L58.2991543,370.071412 L87.9520819,182.979033 Z" id="db_13_single_inner" stroke="#FFFFFF" stroke-width="2" fill="#1E1E1E" sketch:type="MSShapeGroup"></path>
                    <text id="db_txt_13" sketch:type="MSTextLayer" font-family="Helvetica" font-size="36.2018223" font-weight="normal" sketch:alignment="middle" fill="#FFFFFF">
                        <tspan x="38.3746808" y="101.507543">13</tspan>
                    </text>
                    <text id="x2" sketch:type="MSTextLayer" font-family="Helvetica" font-size="23.0375233" font-weight="normal" fill="#FFFFFF">
                        <tspan x="46.0750465" y="39.1774453">x2</tspan>
                    </text>
                    <text id="x3" sketch:type="MSTextLayer" font-family="Helvetica" font-size="23.0375233" font-weight="normal" fill="#FFFFFF">
                        <tspan x="46.0750465" y="158.325326">x3</tspan>
                    </text>
                </g>
                <g id="db_6" transform="translate(554.975155, 370.520964) rotate(90.000000) translate(-554.975155, -370.520964) translate(496.723132, 185.056802)">
                    <path d="M58.3907021,370.92602 L116.358418,4.56401119 C97.3744119,1.57128218 77.9170324,-3.97903932e-13 58.0910314,-3.97903932e-13 C38.3273514,-3.97903932e-13 18.9296408,1.55934839 0,4.53483971 L58.3907021,370.92602 Z" id="db_6_full" stroke="#FFFFFF" stroke-width="2" fill="#000000" sketch:type="MSShapeGroup"></path>
                    <path d="M106.69242,64.7341271 C90.8280108,62.2348216 74.5677528,60.9237106 58.0003479,60.9237106 C41.5176732,60.9237106 25.3381738,62.2202831 9.55055158,64.6944766 L-0.000132390961,4.8657817 C18.9000013,1.90124324 38.2661512,0.345620512 58.0003479,0.345620512 C77.7954445,0.345620512 97.2224942,1.91181671 116.176908,4.89485876 L106.69242,64.7341271 Z" id="db_6_double" stroke="#FFFFFF" stroke-width="2" fill="#00591E" sketch:type="MSShapeGroup"></path>
                    <path d="M9.55055158,64.6940801 L9.55055158,64.6940801 C25.3381738,62.2198866 41.5176732,60.923314 58.0003479,60.923314 C74.5677528,60.923314 90.8280108,62.2357468 106.69242,64.7337306 L97.3668003,123.575127 C84.3461493,121.493474 70.9971686,120.396476 57.3900256,120.396476 C44.3045029,120.396476 31.4546362,121.399634 18.9105926,123.32665 L9.55055158,64.6940801 Z" id="db_6_single_outer" stroke="#FFFFFF" stroke-width="2" fill="#7D7E6D" sketch:type="MSShapeGroup"></path>
                    <path d="M97.3668003,123.574863 C84.3461493,121.49321 70.9971686,120.396211 57.3900256,120.396211 C44.3045029,120.396211 31.4546362,121.39937 18.9105926,123.327708 L28.3924332,182.720247 C37.8464718,181.280932 47.5308707,180.532859 57.3900256,180.532859 C67.7946312,180.532859 77.9993266,181.377415 87.9524791,182.979297 L97.3668003,123.574863 Z" id="db_6_triple" stroke="#FFFFFF" stroke-width="2" fill="#00591E" sketch:type="MSShapeGroup"></path>
                    <path d="M87.9520819,182.979033 C77.9989294,181.378473 67.7942341,180.532595 57.3896284,180.532595 C47.5304735,180.532595 37.8473985,181.280668 28.3920361,182.721304 L28.3920361,182.721304 L58.2991543,370.071412 L87.9520819,182.979033 Z" id="db_6_single_inner" stroke="#FFFFFF" stroke-width="2" fill="#7D7E6D" sketch:type="MSShapeGroup"></path>
                    <text id="db_txt_6" sketch:type="MSTextLayer" font-family="Helvetica" font-size="36.2018223" font-weight="normal" sketch:alignment="middle" fill="#FFFFFF">
                        <tspan x="48.185159" y="100.96185">6</tspan>
                    </text>
                    <text id="x2" sketch:type="MSTextLayer" font-family="Helvetica" font-size="23.0375233" font-weight="normal" fill="#FFFFFF">
                        <tspan x="46.0750465" y="39.1774453">x2</tspan>
                    </text>
                    <text id="x3" sketch:type="MSTextLayer" font-family="Helvetica" font-size="23.0375233" font-weight="normal" fill="#FFFFFF">
                        <tspan x="46.0750465" y="158.325326">x3</tspan>
                    </text>
                </g>
                <g id="db_10" transform="translate(545.786497, 427.679219) rotate(108.000000) translate(-545.786497, -427.679219) translate(487.534474, 242.215057)">
                    <path d="M58.3907021,370.92602 L116.358418,4.56401119 C97.3744119,1.57128218 77.9170324,-8.52651283e-14 58.0910314,-8.52651283e-14 C38.3273514,-8.52651283e-14 18.9296408,1.55934839 4.97379915e-14,4.53483971 L58.3907021,370.92602 Z" id="db_10_full" stroke="#FFFFFF" stroke-width="2" fill="#000000" sketch:type="MSShapeGroup"></path>
                    <path d="M106.69242,64.7341271 C90.8280108,62.2348216 74.5677528,60.9237106 58.0003479,60.9237106 C41.5176732,60.9237106 25.3381738,62.2202831 9.55055158,64.6944766 L-0.000132390961,4.8657817 C18.9000013,1.90124324 38.2661512,0.345620512 58.0003479,0.345620512 C77.7954445,0.345620512 97.2224942,1.91181671 116.176908,4.89485876 L106.69242,64.7341271 Z" id="db_10_double" stroke="#FFFFFF" stroke-width="2" fill="#B01900" sketch:type="MSShapeGroup"></path>
                    <path d="M9.55055158,64.6940801 L9.55055158,64.6940801 C25.3381738,62.2198866 41.5176732,60.923314 58.0003479,60.923314 C74.5677528,60.923314 90.8280108,62.2357468 106.69242,64.7337306 L97.3668003,123.575127 C84.3461493,121.493474 70.9971686,120.396476 57.3900256,120.396476 C44.3045029,120.396476 31.4546362,121.399634 18.9105926,123.32665 L9.55055158,64.6940801 Z" id="db_10_single_outer" stroke="#FFFFFF" stroke-width="2" fill="#1E1E1E" sketch:type="MSShapeGroup"></path>
                    <path d="M97.3668003,123.574863 C84.3461493,121.49321 70.9971686,120.396211 57.3900256,120.396211 C44.3045029,120.396211 31.4546362,121.39937 18.9105926,123.327708 L28.3924332,182.720247 C37.8464718,181.280932 47.5308707,180.532859 57.3900256,180.532859 C67.7946312,180.532859 77.9993266,181.377415 87.9524791,182.979297 L97.3668003,123.574863 Z" id="db_10_triple" stroke="#FFFFFF" stroke-width="2" fill="#B01900" sketch:type="MSShapeGroup"></path>
                    <path d="M87.9520819,182.979033 C77.9989294,181.378473 67.7942341,180.532595 57.3896284,180.532595 C47.5304735,180.532595 37.8473985,181.280668 28.3920361,182.721304 L28.3920361,182.721304 L58.2991543,370.071412 L87.9520819,182.979033 Z" id="db_10_single_inner" stroke="#FFFFFF" stroke-width="2" fill="#1E1E1E" sketch:type="MSShapeGroup"></path>
                    <text id="db_txt_10" sketch:type="MSTextLayer" transform="translate(58.963600, 88.780376) rotate(-180.000000) translate(-58.963600, -88.780376) " font-family="Helvetica" font-size="36.2018223" font-weight="normal" sketch:alignment="middle" fill="#FFFFFF">
                        <tspan x="38.829872" y="101.507543">10</tspan>
                    </text>
                    <text id="x2" sketch:type="MSTextLayer" transform="translate(58.575047, 30.177445) rotate(-180.000000) translate(-58.575047, -30.177445) " font-family="Helvetica" font-size="23.0375233" font-weight="normal" fill="#FFFFFF">
                        <tspan x="46.0750465" y="39.1774453">x2</tspan>
                    </text>
                    <text id="x3" sketch:type="MSTextLayer" transform="translate(58.575047, 149.325326) rotate(-180.000000) translate(-58.575047, -149.325326) " font-family="Helvetica" font-size="23.0375233" font-weight="normal" fill="#FFFFFF">
                        <tspan x="46.0750465" y="158.325326">x3</tspan>
                    </text>
                </g>
                <g id="db_15" transform="translate(519.384692, 479.200498) rotate(126.000000) translate(-519.384692, -479.200498) translate(461.132669, 293.736336)">
                    <path d="M58.3907021,370.92602 L116.358418,4.56401119 C97.3744119,1.57128218 77.9170324,-1.98951966e-13 58.0910314,-1.98951966e-13 C38.3273514,-1.98951966e-13 18.9296408,1.55934839 -9.9475983e-14,4.53483971 L58.3907021,370.92602 Z" id="db_15_full" stroke="#FFFFFF" stroke-width="2" fill="#000000" sketch:type="MSShapeGroup"></path>
                    <path d="M106.69242,64.7341271 C90.8280108,62.2348216 74.5677528,60.9237106 58.0003479,60.9237106 C41.5176732,60.9237106 25.3381738,62.2202831 9.55055158,64.6944766 L-0.000132390962,4.8657817 C18.9000013,1.90124324 38.2661512,0.345620512 58.0003479,0.345620512 C77.7954445,0.345620512 97.2224942,1.91181671 116.176908,4.89485876 L106.69242,64.7341271 Z" id="db_15_double" stroke="#FFFFFF" stroke-width="2" fill="#00591E" sketch:type="MSShapeGroup"></path>
                    <path d="M9.55055158,64.6940801 L9.55055158,64.6940801 C25.3381738,62.2198866 41.5176732,60.923314 58.0003479,60.923314 C74.5677528,60.923314 90.8280108,62.2357468 106.69242,64.7337306 L97.3668003,123.575127 C84.3461493,121.493474 70.9971686,120.396476 57.3900256,120.396476 C44.3045029,120.396476 31.4546362,121.399634 18.9105926,123.32665 L9.55055158,64.6940801 Z" id="db_15_single_outer" stroke="#FFFFFF" stroke-width="2" fill="#7D7E6D" sketch:type="MSShapeGroup"></path>
                    <path d="M97.3668003,123.574863 C84.3461493,121.49321 70.9971686,120.396211 57.3900256,120.396211 C44.3045029,120.396211 31.4546362,121.39937 18.9105926,123.327708 L28.3924332,182.720247 C37.8464718,181.280932 47.5308707,180.532859 57.3900256,180.532859 C67.7946312,180.532859 77.9993266,181.377415 87.9524791,182.979297 L97.3668003,123.574863 Z" id="db_15_triple" stroke="#FFFFFF" stroke-width="2" fill="#00591E" sketch:type="MSShapeGroup"></path>
                    <path d="M87.9520819,182.979033 C77.9989294,181.378473 67.7942341,180.532595 57.3896284,180.532595 C47.5304735,180.532595 37.8473985,181.280668 28.3920361,182.721304 L28.3920361,182.721304 L58.2991543,370.071412 L87.9520819,182.979033 Z" id="db_15_single_inner" stroke="#FFFFFF" stroke-width="2" fill="#7D7E6D" sketch:type="MSShapeGroup"></path>
                    <text id="db_txt_15" sketch:type="MSTextLayer" transform="translate(58.963600, 88.780376) rotate(-180.000000) translate(-58.963600, -88.780376) " font-family="Helvetica" font-size="36.2018223" font-weight="normal" sketch:alignment="middle" fill="#FFFFFF">
                        <tspan x="38.829872" y="101.507543">15</tspan>
                    </text>
                    <text id="x2" sketch:type="MSTextLayer" transform="translate(58.575047, 30.177445) rotate(-180.000000) translate(-58.575047, -30.177445) " font-family="Helvetica" font-size="23.0375233" font-weight="normal" fill="#FFFFFF">
                        <tspan x="46.0750465" y="39.1774453">x2</tspan>
                    </text>
                    <text id="x3" sketch:type="MSTextLayer" transform="translate(58.575047, 149.325326) rotate(-180.000000) translate(-58.575047, -149.325326) " font-family="Helvetica" font-size="23.0375233" font-weight="normal" fill="#FFFFFF">
                        <tspan x="46.0750465" y="158.325326">x3</tspan>
                    </text>
                </g>
                <g id="db_2" transform="translate(478.354133, 520.041540) rotate(144.000000) translate(-478.354133, -520.041540) translate(420.102110, 334.577378)">
                    <path d="M58.3907021,370.92602 L116.358418,4.56401119 C97.3744119,1.57128218 77.9170324,-1.98951966e-13 58.0910314,-1.98951966e-13 C38.3273514,-1.98951966e-13 18.9296408,1.55934839 4.97379915e-14,4.53483971 L58.3907021,370.92602 Z" id="db_2_full" stroke="#FFFFFF" stroke-width="2" fill="#000000" sketch:type="MSShapeGroup"></path>
                    <path d="M106.69242,64.7341271 C90.8280108,62.2348216 74.5677528,60.9237106 58.0003479,60.9237106 C41.5176732,60.9237106 25.3381738,62.2202831 9.55055158,64.6944766 L-0.000132390961,4.8657817 C18.9000013,1.90124324 38.2661512,0.345620512 58.0003479,0.345620512 C77.7954445,0.345620512 97.2224942,1.91181671 116.176908,4.89485876 L106.69242,64.7341271 Z" id="db_2_double" stroke="#FFFFFF" stroke-width="2" fill="#B01900" sketch:type="MSShapeGroup"></path>
                    <path d="M9.55055158,64.6940801 L9.55055158,64.6940801 C25.3381738,62.2198866 41.5176732,60.923314 58.0003479,60.923314 C74.5677528,60.923314 90.8280108,62.2357468 106.69242,64.7337306 L97.3668003,123.575127 C84.3461493,121.493474 70.9971686,120.396476 57.3900256,120.396476 C44.3045029,120.396476 31.4546362,121.399634 18.9105926,123.32665 L9.55055158,64.6940801 Z" id="db_2_single_outer" stroke="#FFFFFF" stroke-width="2" fill="#1E1E1E" sketch:type="MSShapeGroup"></path>
                    <path d="M97.3668003,123.574863 C84.3461493,121.49321 70.9971686,120.396211 57.3900256,120.396211 C44.3045029,120.396211 31.4546362,121.39937 18.9105926,123.327708 L28.3924332,182.720247 C37.8464718,181.280932 47.5308707,180.532859 57.3900256,180.532859 C67.7946312,180.532859 77.9993266,181.377415 87.9524791,182.979297 L97.3668003,123.574863 Z" id="db_2_triple" stroke="#FFFFFF" stroke-width="2" fill="#B01900" sketch:type="MSShapeGroup"></path>
                    <path d="M87.9520819,182.979033 C77.9989294,181.378473 67.7942341,180.532595 57.3896284,180.532595 C47.5304735,180.532595 37.8473985,181.280668 28.3920361,182.721304 L28.3920361,182.721304 L58.2991543,370.071412 L87.9520819,182.979033 Z" id="db_2_single_inner" stroke="#FFFFFF" stroke-width="2" fill="#1E1E1E" sketch:type="MSShapeGroup"></path>
                    <text id="db_txt_2" sketch:type="MSTextLayer" transform="translate(58.138696, 88.780376) rotate(-180.000000) translate(-58.138696, -88.780376) " font-family="Helvetica" font-size="36.2018223" font-weight="normal" sketch:alignment="middle" fill="#FFFFFF">
                        <tspan x="48.0718323" y="101.507543">2</tspan>
                    </text>
                    <text id="x2" sketch:type="MSTextLayer" transform="translate(58.575047, 30.177445) rotate(-180.000000) translate(-58.575047, -30.177445) " font-family="Helvetica" font-size="23.0375233" font-weight="normal" fill="#FFFFFF">
                        <tspan x="46.0750465" y="39.1774453">x2</tspan>
                    </text>
                    <text id="x3" sketch:type="MSTextLayer" transform="translate(58.575047, 149.325326) rotate(-180.000000) translate(-58.575047, -149.325326) " font-family="Helvetica" font-size="23.0375233" font-weight="normal" fill="#FFFFFF">
                        <tspan x="46.0750465" y="158.325326">x3</tspan>
                    </text>
                </g>
                <g id="db_17" transform="translate(426.830579, 546.143700) rotate(162.000000) translate(-426.830579, -546.143700) translate(368.578555, 360.679538)">
                    <path d="M58.3907021,370.92602 L116.358418,4.56401119 C97.3744119,1.57128218 77.9170324,0 58.0910314,0 C38.3273514,0 18.9296408,1.55934839 -5.82645043e-13,4.53483971 L58.3907021,370.92602 Z" id="db_17_full" stroke="#FFFFFF" stroke-width="2" fill="#000000" sketch:type="MSShapeGroup"></path>
                    <path d="M106.69242,64.7341271 C90.8280108,62.2348216 74.5677528,60.9237106 58.0003479,60.9237106 C41.5176732,60.9237106 25.3381738,62.2202831 9.55055158,64.6944766 L-0.000132390962,4.8657817 C18.9000013,1.90124324 38.2661512,0.345620512 58.0003479,0.345620512 C77.7954445,0.345620512 97.2224942,1.91181671 116.176908,4.89485876 L106.69242,64.7341271 Z" id="db_17_double" stroke="#FFFFFF" stroke-width="2" fill="#00591E" sketch:type="MSShapeGroup"></path>
                    <path d="M9.55055158,64.6940801 L9.55055158,64.6940801 C25.3381738,62.2198866 41.5176732,60.923314 58.0003479,60.923314 C74.5677528,60.923314 90.8280108,62.2357468 106.69242,64.7337306 L97.3668003,123.575127 C84.3461493,121.493474 70.9971686,120.396476 57.3900256,120.396476 C44.3045029,120.396476 31.4546362,121.399634 18.9105926,123.32665 L9.55055158,64.6940801 Z" id="db_17_single_outer" stroke="#FFFFFF" stroke-width="2" fill="#7D7E6D" sketch:type="MSShapeGroup"></path>
                    <path d="M97.3668003,123.574863 C84.3461493,121.49321 70.9971686,120.396211 57.3900256,120.396211 C44.3045029,120.396211 31.4546362,121.39937 18.9105926,123.327708 L28.3924332,182.720247 C37.8464718,181.280932 47.5308707,180.532859 57.3900256,180.532859 C67.7946312,180.532859 77.9993266,181.377415 87.9524791,182.979297 L97.3668003,123.574863 Z" id="db_17_triple" stroke="#FFFFFF" stroke-width="2" fill="#00591E" sketch:type="MSShapeGroup"></path>
                    <path d="M87.9520819,182.979033 C77.9989294,181.378473 67.7942341,180.532595 57.3896284,180.532595 C47.5304735,180.532595 37.8473985,181.280668 28.3920361,182.721304 L28.3920361,182.721304 L58.2991543,370.071412 L87.9520819,182.979033 Z" id="db_17_single_inner" stroke="#FFFFFF" stroke-width="2" fill="#7D7E6D" sketch:type="MSShapeGroup"></path>
                    <text id="db_txt_17" sketch:type="MSTextLayer" transform="translate(58.963600, 88.780376) rotate(-180.000000) translate(-58.963600, -88.780376) " font-family="Helvetica" font-size="36.2018223" font-weight="normal" sketch:alignment="middle" fill="#FFFFFF">
                        <tspan x="38.829872" y="101.507543">17</tspan>
                    </text>
                    <text id="x2" sketch:type="MSTextLayer" transform="translate(58.575047, 30.177445) rotate(-180.000000) translate(-58.575047, -30.177445) " font-family="Helvetica" font-size="23.0375233" font-weight="normal" fill="#FFFFFF">
                        <tspan x="46.0750465" y="39.1774453">x2</tspan>
                    </text>
                    <text id="x3" sketch:type="MSTextLayer" transform="translate(58.575047, 149.325326) rotate(-180.000000) translate(-58.575047, -149.325326) " font-family="Helvetica" font-size="23.0375233" font-weight="normal" fill="#FFFFFF">
                        <tspan x="46.0750465" y="158.325326">x3</tspan>
                    </text>
                </g>
                <g id="db_3" transform="translate(369.762756, 555.046676) rotate(180.000000) translate(-369.762756, -555.046676) translate(311.510733, 369.582514)">
                    <path d="M58.3907021,370.92602 L116.358418,4.56401119 C97.3744119,1.57128218 77.9170324,-1.98951966e-13 58.0910314,-1.98951966e-13 C38.3273514,-1.98951966e-13 18.9296408,1.55934839 -4.97379915e-14,4.53483971 L58.3907021,370.92602 Z" id="db_3_full" stroke="#FFFFFF" stroke-width="2" fill="#000000" sketch:type="MSShapeGroup"></path>
                    <path d="M106.69242,64.7341271 C90.8280108,62.2348216 74.5677528,60.9237106 58.0003479,60.9237106 C41.5176732,60.9237106 25.3381738,62.2202831 9.55055158,64.6944766 L-0.000132390961,4.8657817 C18.9000013,1.90124324 38.2661512,0.345620512 58.0003479,0.345620512 C77.7954445,0.345620512 97.2224942,1.91181671 116.176908,4.89485876 L106.69242,64.7341271 Z" id="db_3_double" stroke="#FFFFFF" stroke-width="2" fill="#B01900" sketch:type="MSShapeGroup"></path>
                    <path d="M9.55055158,64.6940801 L9.55055158,64.6940801 C25.3381738,62.2198866 41.5176732,60.923314 58.0003479,60.923314 C74.5677528,60.923314 90.8280108,62.2357468 106.69242,64.7337306 L97.3668003,123.575127 C84.3461493,121.493474 70.9971686,120.396476 57.3900256,120.396476 C44.3045029,120.396476 31.4546362,121.399634 18.9105926,123.32665 L9.55055158,64.6940801 Z" id="db_3_single_outer" stroke="#FFFFFF" stroke-width="2" fill="#1E1E1E" sketch:type="MSShapeGroup"></path>
                    <path d="M97.3668003,123.574863 C84.3461493,121.49321 70.9971686,120.396211 57.3900256,120.396211 C44.3045029,120.396211 31.4546362,121.39937 18.9105926,123.327708 L28.3924332,182.720247 C37.8464718,181.280932 47.5308707,180.532859 57.3900256,180.532859 C67.7946312,180.532859 77.9993266,181.377415 87.9524791,182.979297 L97.3668003,123.574863 Z" id="db_3_triple" stroke="#FFFFFF" stroke-width="2" fill="#B01900" sketch:type="MSShapeGroup"></path>
                    <path d="M87.9520819,182.979033 C77.9989294,181.378473 67.7942341,180.532595 57.3896284,180.532595 C47.5304735,180.532595 37.8473985,181.280668 28.3920361,182.721304 L28.3920361,182.721304 L58.2991543,370.071412 L87.9520819,182.979033 Z" id="db_3_single_inner" stroke="#FFFFFF" stroke-width="2" fill="#1E1E1E" sketch:type="MSShapeGroup"></path>
                    <text id="db_txt_3" sketch:type="MSTextLayer" transform="translate(58.138696, 88.780376) rotate(-180.000000) translate(-58.138696, -88.780376) " font-family="Helvetica" font-size="36.2018223" font-weight="normal" sketch:alignment="middle" fill="#FFFFFF">
                        <tspan x="48.0718323" y="101.507543">3</tspan>
                    </text>
                    <text id="x2" sketch:type="MSTextLayer" transform="translate(58.575047, 30.177445) rotate(-180.000000) translate(-58.575047, -30.177445) " font-family="Helvetica" font-size="23.0375233" font-weight="normal" fill="#FFFFFF">
                        <tspan x="46.0750465" y="39.1774453">x2</tspan>
                    </text>
                    <text id="x3" sketch:type="MSTextLayer" transform="translate(58.575047, 149.325326) rotate(-180.000000) translate(-58.575047, -149.325326) " font-family="Helvetica" font-size="23.0375233" font-weight="normal" fill="#FFFFFF">
                        <tspan x="46.0750465" y="158.325326">x3</tspan>
                    </text>
                </g>
                <g id="db_19" transform="translate(312.736860, 545.878981) rotate(198.000000) translate(-312.736860, -545.878981) translate(254.484837, 360.414820)">
                    <path d="M58.3907021,370.92602 L116.358418,4.56401119 C97.3744119,1.57128218 77.9170324,-1.16529009e-12 58.0910314,-1.16529009e-12 C38.3273514,-1.16529009e-12 18.9296408,1.55934839 -9.9475983e-14,4.53483971 L58.3907021,370.92602 Z" id="db_19_full" stroke="#FFFFFF" stroke-width="2" fill="#000000" sketch:type="MSShapeGroup"></path>
                    <path d="M106.69242,64.7341271 C90.8280108,62.2348216 74.5677528,60.9237106 58.0003479,60.9237106 C41.5176732,60.9237106 25.3381738,62.2202831 9.55055158,64.6944766 L-0.000132390962,4.8657817 C18.9000013,1.90124324 38.2661512,0.345620512 58.0003479,0.345620512 C77.7954445,0.345620512 97.2224942,1.91181671 116.176908,4.89485876 L106.69242,64.7341271 Z" id="db_19_double" stroke="#FFFFFF" stroke-width="2" fill="#00591E" sketch:type="MSShapeGroup"></path>
                    <path d="M9.55055158,64.6940801 L9.55055158,64.6940801 C25.3381738,62.2198866 41.5176732,60.923314 58.0003479,60.923314 C74.5677528,60.923314 90.8280108,62.2357468 106.69242,64.7337306 L97.3668003,123.575127 C84.3461493,121.493474 70.9971686,120.396476 57.3900256,120.396476 C44.3045029,120.396476 31.4546362,121.399634 18.9105926,123.32665 L9.55055158,64.6940801 Z" id="db_19_single_outer" stroke="#FFFFFF" stroke-width="2" fill="#7D7E6D" sketch:type="MSShapeGroup"></path>
                    <path d="M97.3668003,123.574863 C84.3461493,121.49321 70.9971686,120.396211 57.3900256,120.396211 C44.3045029,120.396211 31.4546362,121.39937 18.9105926,123.327708 L28.3924332,182.720247 C37.8464718,181.280932 47.5308707,180.532859 57.3900256,180.532859 C67.7946312,180.532859 77.9993266,181.377415 87.9524791,182.979297 L97.3668003,123.574863 Z" id="db_19_triple" stroke="#FFFFFF" stroke-width="2" fill="#00591E" sketch:type="MSShapeGroup"></path>
                    <path d="M87.9520819,182.979033 C77.9989294,181.378473 67.7942341,180.532595 57.3896284,180.532595 C47.5304735,180.532595 37.8473985,181.280668 28.3920361,182.721304 L28.3920361,182.721304 L58.2991543,370.071412 L87.9520819,182.979033 Z" id="db_19_single_inner" stroke="#FFFFFF" stroke-width="2" fill="#7D7E6D" sketch:type="MSShapeGroup"></path>
                    <text id="db_txt_19" sketch:type="MSTextLayer" transform="translate(58.963600, 88.780376) rotate(-180.000000) translate(-58.963600, -88.780376) " font-family="Helvetica" font-size="36.2018223" font-weight="normal" sketch:alignment="middle" fill="#FFFFFF">
                        <tspan x="38.829872" y="101.507543">19</tspan>
                    </text>
                    <text id="x2" sketch:type="MSTextLayer" transform="translate(58.575047, 30.177445) rotate(-180.000000) translate(-58.575047, -30.177445) " font-family="Helvetica" font-size="23.0375233" font-weight="normal" fill="#FFFFFF">
                        <tspan x="46.0750465" y="39.1774453">x2</tspan>
                    </text>
                    <text id="x3" sketch:type="MSTextLayer" transform="translate(58.575047, 149.325326) rotate(-180.000000) translate(-58.575047, -149.325326) " font-family="Helvetica" font-size="23.0375233" font-weight="normal" fill="#FFFFFF">
                        <tspan x="46.0750465" y="158.325326">x3</tspan>
                    </text>
                </g>
                <g id="db_7" transform="translate(261.334984, 519.538015) rotate(216.000000) translate(-261.334984, -519.538015) translate(203.082961, 334.073853)">
                    <path d="M58.3907021,370.92602 L116.358418,4.56401119 C97.3744119,1.57128218 77.9170324,-1.98951966e-13 58.0910314,-1.98951966e-13 C38.3273514,-1.98951966e-13 18.9296408,1.55934839 -9.9475983e-14,4.53483971 L58.3907021,370.92602 Z" id="db_7_full" stroke="#FFFFFF" stroke-width="2" fill="#000000" sketch:type="MSShapeGroup"></path>
                    <path d="M106.69242,64.7341271 C90.8280108,62.2348216 74.5677528,60.9237106 58.0003479,60.9237106 C41.5176732,60.9237106 25.3381738,62.2202831 9.55055158,64.6944766 L-0.000132390961,4.8657817 C18.9000013,1.90124324 38.2661512,0.345620512 58.0003479,0.345620512 C77.7954445,0.345620512 97.2224942,1.91181671 116.176908,4.89485876 L106.69242,64.7341271 Z" id="db_7_double" stroke="#FFFFFF" stroke-width="2" fill="#B01900" sketch:type="MSShapeGroup"></path>
                    <path d="M9.55055158,64.6940801 L9.55055158,64.6940801 C25.3381738,62.2198866 41.5176732,60.923314 58.0003479,60.923314 C74.5677528,60.923314 90.8280108,62.2357468 106.69242,64.7337306 L97.3668003,123.575127 C84.3461493,121.493474 70.9971686,120.396476 57.3900256,120.396476 C44.3045029,120.396476 31.4546362,121.399634 18.9105926,123.32665 L9.55055158,64.6940801 Z" id="db_7_single_outer" stroke="#FFFFFF" stroke-width="2" fill="#1E1E1E" sketch:type="MSShapeGroup"></path>
                    <path d="M97.3668003,123.574863 C84.3461493,121.49321 70.9971686,120.396211 57.3900256,120.396211 C44.3045029,120.396211 31.4546362,121.39937 18.9105926,123.327708 L28.3924332,182.720247 C37.8464718,181.280932 47.5308707,180.532859 57.3900256,180.532859 C67.7946312,180.532859 77.9993266,181.377415 87.9524791,182.979297 L97.3668003,123.574863 Z" id="db_7_triple" stroke="#FFFFFF" stroke-width="2" fill="#B01900" sketch:type="MSShapeGroup"></path>
                    <path d="M87.9520819,182.979033 C77.9989294,181.378473 67.7942341,180.532595 57.3896284,180.532595 C47.5304735,180.532595 37.8473985,181.280668 28.3920361,182.721304 L28.3920361,182.721304 L58.2991543,370.071412 L87.9520819,182.979033 Z" id="db_7_single_inner" stroke="#FFFFFF" stroke-width="2" fill="#1E1E1E" sketch:type="MSShapeGroup"></path>
                    <text id="db_txt_7" sketch:type="MSTextLayer" transform="translate(58.138696, 88.780376) rotate(-180.000000) translate(-58.138696, -88.780376) " font-family="Helvetica" font-size="36.2018223" font-weight="normal" sketch:alignment="middle" fill="#FFFFFF">
                        <tspan x="48.0718323" y="101.507543">7</tspan>
                    </text>
                    <text id="x2" sketch:type="MSTextLayer" transform="translate(58.575047, 30.177445) rotate(-180.000000) translate(-58.575047, -30.177445) " font-family="Helvetica" font-size="23.0375233" font-weight="normal" fill="#FFFFFF">
                        <tspan x="46.0750465" y="39.1774453">x2</tspan>
                    </text>
                    <text id="x3" sketch:type="MSTextLayer" transform="translate(58.575047, 149.325326) rotate(-180.000000) translate(-58.575047, -149.325326) " font-family="Helvetica" font-size="23.0375233" font-weight="normal" fill="#FFFFFF">
                        <tspan x="46.0750465" y="158.325326">x3</tspan>
                    </text>
                </g>
                <g id="db_16" transform="translate(220.588701, 478.602214) rotate(234.000000) translate(-220.588701, -478.602214) translate(162.336677, 293.138053)">
                    <path d="M58.3907021,370.92602 L116.358418,4.56401119 C97.3744119,1.57128218 77.9170324,-4.8316906e-13 58.0910314,-4.8316906e-13 C38.3273514,-4.8316906e-13 18.9296408,1.55934839 9.9475983e-14,4.53483971 L58.3907021,370.92602 Z" id="db_16_full" stroke="#FFFFFF" stroke-width="2" fill="#000000" sketch:type="MSShapeGroup"></path>
                    <path d="M106.69242,64.7341271 C90.8280108,62.2348216 74.5677528,60.9237106 58.0003479,60.9237106 C41.5176732,60.9237106 25.3381738,62.2202831 9.55055158,64.6944766 L-0.000132390961,4.8657817 C18.9000013,1.90124324 38.2661512,0.345620512 58.0003479,0.345620512 C77.7954445,0.345620512 97.2224942,1.91181671 116.176908,4.89485876 L106.69242,64.7341271 Z" id="db_16_double" stroke="#FFFFFF" stroke-width="2" fill="#00591E" sketch:type="MSShapeGroup"></path>
                    <path d="M9.55055158,64.6940801 L9.55055158,64.6940801 C25.3381738,62.2198866 41.5176732,60.923314 58.0003479,60.923314 C74.5677528,60.923314 90.8280108,62.2357468 106.69242,64.7337306 L97.3668003,123.575127 C84.3461493,121.493474 70.9971686,120.396476 57.3900256,120.396476 C44.3045029,120.396476 31.4546362,121.399634 18.9105926,123.32665 L9.55055158,64.6940801 Z" id="db_16_single_outer" stroke="#FFFFFF" stroke-width="2" fill="#7D7E6D" sketch:type="MSShapeGroup"></path>
                    <path d="M97.3668003,123.574863 C84.3461493,121.49321 70.9971686,120.396211 57.3900256,120.396211 C44.3045029,120.396211 31.4546362,121.39937 18.9105926,123.327708 L28.3924332,182.720247 C37.8464718,181.280932 47.5308707,180.532859 57.3900256,180.532859 C67.7946312,180.532859 77.9993266,181.377415 87.9524791,182.979297 L97.3668003,123.574863 Z" id="db_16_triple" stroke="#FFFFFF" stroke-width="2" fill="#00591E" sketch:type="MSShapeGroup"></path>
                    <path d="M87.9520819,182.979033 C77.9989294,181.378473 67.7942341,180.532595 57.3896284,180.532595 C47.5304735,180.532595 37.8473985,181.280668 28.3920361,182.721304 L28.3920361,182.721304 L58.2991543,370.071412 L87.9520819,182.979033 Z" id="db_16_single_inner" stroke="#FFFFFF" stroke-width="2" fill="#7D7E6D" sketch:type="MSShapeGroup"></path>
                    <text id="db_txt_16" sketch:type="MSTextLayer" transform="translate(58.138696, 88.780376) rotate(-180.000000) translate(-58.138696, -88.780376) " font-family="Helvetica" font-size="36.2018223" font-weight="normal" sketch:alignment="middle" fill="#FFFFFF">
                        <tspan x="38.0049681" y="101.507543">16</tspan>
                    </text>
                    <text id="x2" sketch:type="MSTextLayer" transform="translate(58.575047, 30.177445) rotate(-180.000000) translate(-58.575047, -30.177445) " font-family="Helvetica" font-size="23.0375233" font-weight="normal" fill="#FFFFFF">
                        <tspan x="46.0750465" y="39.1774453">x2</tspan>
                    </text>
                    <text id="x3" sketch:type="MSTextLayer" transform="translate(58.575047, 149.325326) rotate(-180.000000) translate(-58.575047, -149.325326) " font-family="Helvetica" font-size="23.0375233" font-weight="normal" fill="#FFFFFF">
                        <tspan x="46.0750465" y="158.325326">x3</tspan>
                    </text>
                </g>
                <g id="db_8" transform="translate(194.486540, 427.078660) rotate(252.000000) translate(-194.486540, -427.078660) translate(136.234517, 241.614498)">
                    <path d="M58.3907021,370.92602 L116.358418,4.56401119 C97.3744119,1.57128218 77.9170324,-8.52651283e-14 58.0910314,-8.52651283e-14 C38.3273514,-8.52651283e-14 18.9296408,1.55934839 -9.9475983e-14,4.53483971 L58.3907021,370.92602 Z" id="db_8_full" stroke="#FFFFFF" stroke-width="2" fill="#000000" sketch:type="MSShapeGroup"></path>
                    <path d="M106.69242,64.7341271 C90.8280108,62.2348216 74.5677528,60.9237106 58.0003479,60.9237106 C41.5176732,60.9237106 25.3381738,62.2202831 9.55055158,64.6944766 L-0.000132390962,4.8657817 C18.9000013,1.90124324 38.2661512,0.345620512 58.0003479,0.345620512 C77.7954445,0.345620512 97.2224942,1.91181671 116.176908,4.89485876 L106.69242,64.7341271 Z" id="db_8_double" stroke="#FFFFFF" stroke-width="2" fill="#B01900" sketch:type="MSShapeGroup"></path>
                    <path d="M9.55055158,64.6940801 L9.55055158,64.6940801 C25.3381738,62.2198866 41.5176732,60.923314 58.0003479,60.923314 C74.5677528,60.923314 90.8280108,62.2357468 106.69242,64.7337306 L97.3668003,123.575127 C84.3461493,121.493474 70.9971686,120.396476 57.3900256,120.396476 C44.3045029,120.396476 31.4546362,121.399634 18.9105926,123.32665 L9.55055158,64.6940801 Z" id="db_8_single_outer" stroke="#FFFFFF" stroke-width="2" fill="#1E1E1E" sketch:type="MSShapeGroup"></path>
                    <path d="M97.3668003,123.574863 C84.3461493,121.49321 70.9971686,120.396211 57.3900256,120.396211 C44.3045029,120.396211 31.4546362,121.39937 18.9105926,123.327708 L28.3924332,182.720247 C37.8464718,181.280932 47.5308707,180.532859 57.3900256,180.532859 C67.7946312,180.532859 77.9993266,181.377415 87.9524791,182.979297 L97.3668003,123.574863 Z" id="db_8_triple" stroke="#FFFFFF" stroke-width="2" fill="#B01900" sketch:type="MSShapeGroup"></path>
                    <path d="M87.9520819,182.979033 C77.9989294,181.378473 67.7942341,180.532595 57.3896284,180.532595 C47.5304735,180.532595 37.8473985,181.280668 28.3920361,182.721304 L28.3920361,182.721304 L58.2991543,370.071412 L87.9520819,182.979033 Z" id="db_8_single_inner" stroke="#FFFFFF" stroke-width="2" fill="#1E1E1E" sketch:type="MSShapeGroup"></path>
                    <text id="db_txt_8" sketch:type="MSTextLayer" transform="translate(58.508409, 88.780376) rotate(-180.000000) translate(-58.508409, -88.780376) " font-family="Helvetica" font-size="36.2018223" font-weight="normal" sketch:alignment="middle" fill="#FFFFFF">
                        <tspan x="48.4415449" y="101.507543">8</tspan>
                    </text>
                    <text id="x2" sketch:type="MSTextLayer" transform="translate(58.575047, 30.177445) rotate(-180.000000) translate(-58.575047, -30.177445) " font-family="Helvetica" font-size="23.0375233" font-weight="normal" fill="#FFFFFF">
                        <tspan x="46.0750465" y="39.1774453">x2</tspan>
                    </text>
                    <text id="x3" sketch:type="MSTextLayer" transform="translate(58.575047, 149.325326) rotate(-180.000000) translate(-58.575047, -149.325326) " font-family="Helvetica" font-size="23.0375233" font-weight="normal" fill="#FFFFFF">
                        <tspan x="46.0750465" y="158.325326">x3</tspan>
                    </text>
                </g>
                <g id="db_11" transform="translate(185.583565, 370.010837) rotate(270.000000) translate(-185.583565, -370.010837) translate(127.331542, 184.546676)">
                    <path d="M58.3907021,370.92602 L116.358418,4.56401119 C97.3744119,1.57128218 77.9170324,-1.98951966e-13 58.0910314,-1.98951966e-13 C38.3273514,-1.98951966e-13 18.9296408,1.55934839 4.97379915e-14,4.53483971 L58.3907021,370.92602 Z" id="db_11_full" stroke="#FFFFFF" stroke-width="2" fill="#000000" sketch:type="MSShapeGroup"></path>
                    <path d="M106.69242,64.7341271 C90.8280108,62.2348216 74.5677528,60.9237106 58.0003479,60.9237106 C41.5176732,60.9237106 25.3381738,62.2202831 9.55055158,64.6944766 L-0.000132390961,4.8657817 C18.9000013,1.90124324 38.2661512,0.345620512 58.0003479,0.345620512 C77.7954445,0.345620512 97.2224942,1.91181671 116.176908,4.89485876 L106.69242,64.7341271 Z" id="db_11_double" stroke="#FFFFFF" stroke-width="2" fill="#00591E" sketch:type="MSShapeGroup"></path>
                    <path d="M9.55055158,64.6940801 L9.55055158,64.6940801 C25.3381738,62.2198866 41.5176732,60.923314 58.0003479,60.923314 C74.5677528,60.923314 90.8280108,62.2357468 106.69242,64.7337306 L97.3668003,123.575127 C84.3461493,121.493474 70.9971686,120.396476 57.3900256,120.396476 C44.3045029,120.396476 31.4546362,121.399634 18.9105926,123.32665 L9.55055158,64.6940801 Z" id="db_11_single_outer" stroke="#FFFFFF" stroke-width="2" fill="#7D7E6D" sketch:type="MSShapeGroup"></path>
                    <path d="M97.3668003,123.574863 C84.3461493,121.49321 70.9971686,120.396211 57.3900256,120.396211 C44.3045029,120.396211 31.4546362,121.39937 18.9105926,123.327708 L28.3924332,182.720247 C37.8464718,181.280932 47.5308707,180.532859 57.3900256,180.532859 C67.7946312,180.532859 77.9993266,181.377415 87.9524791,182.979297 L97.3668003,123.574863 Z" id="db_11_triple" stroke="#FFFFFF" stroke-width="2" fill="#00591E" sketch:type="MSShapeGroup"></path>
                    <path d="M87.9520819,182.979033 C77.9989294,181.378473 67.7942341,180.532595 57.3896284,180.532595 C47.5304735,180.532595 37.8473985,181.280668 28.3920361,182.721304 L28.3920361,182.721304 L58.2991543,370.071412 L87.9520819,182.979033 Z" id="db_11_single_inner" stroke="#FFFFFF" stroke-width="2" fill="#7D7E6D" sketch:type="MSShapeGroup"></path>
                    <text id="db_txt_11" sketch:type="MSTextLayer" font-family="Helvetica" font-size="36.2018223" font-weight="normal" sketch:alignment="middle" fill="#FFFFFF">
                        <tspan x="39.7092694" y="101.507543">11</tspan>
                    </text>
                    <text id="x2" sketch:type="MSTextLayer" font-family="Helvetica" font-size="23.0375233" font-weight="normal" fill="#FFFFFF">
                        <tspan x="46.0750465" y="39.1774453">x2</tspan>
                    </text>
                    <text id="x3" sketch:type="MSTextLayer" font-family="Helvetica" font-size="23.0375233" font-weight="normal" fill="#FFFFFF">
                        <tspan x="46.0750465" y="158.325326">x3</tspan>
                    </text>
                </g>
                <g id="db_14" transform="translate(194.751259, 312.984942) rotate(288.000000) translate(-194.751259, -312.984942) translate(136.499236, 127.520780)">
                    <path d="M58.3907021,370.92602 L116.358418,4.56401119 C97.3744119,1.57128218 77.9170324,-2.55795385e-13 58.0910314,-2.55795385e-13 C38.3273514,-2.55795385e-13 18.9296408,1.55934839 -4.97379915e-14,4.53483971 L58.3907021,370.92602 Z" id="db_14_full" stroke="#FFFFFF" stroke-width="2" fill="#000000" sketch:type="MSShapeGroup"></path>
                    <path d="M106.69242,64.7341271 C90.8280108,62.2348216 74.5677528,60.9237106 58.0003479,60.9237106 C41.5176732,60.9237106 25.3381738,62.2202831 9.55055158,64.6944766 L-0.000132390961,4.8657817 C18.9000013,1.90124324 38.2661512,0.345620512 58.0003479,0.345620512 C77.7954445,0.345620512 97.2224942,1.91181671 116.176908,4.89485876 L106.69242,64.7341271 Z" id="db_14_double" stroke="#FFFFFF" stroke-width="2" fill="#B01900" sketch:type="MSShapeGroup"></path>
                    <path d="M9.55055158,64.6940801 L9.55055158,64.6940801 C25.3381738,62.2198866 41.5176732,60.923314 58.0003479,60.923314 C74.5677528,60.923314 90.8280108,62.2357468 106.69242,64.7337306 L97.3668003,123.575127 C84.3461493,121.493474 70.9971686,120.396476 57.3900256,120.396476 C44.3045029,120.396476 31.4546362,121.399634 18.9105926,123.32665 L9.55055158,64.6940801 Z" id="db_14_single_outer" stroke="#FFFFFF" stroke-width="2" fill="#1E1E1E" sketch:type="MSShapeGroup"></path>
                    <path d="M97.3668003,123.574863 C84.3461493,121.49321 70.9971686,120.396211 57.3900256,120.396211 C44.3045029,120.396211 31.4546362,121.39937 18.9105926,123.327708 L28.3924332,182.720247 C37.8464718,181.280932 47.5308707,180.532859 57.3900256,180.532859 C67.7946312,180.532859 77.9993266,181.377415 87.9524791,182.979297 L97.3668003,123.574863 Z" id="db_14_triple" stroke="#FFFFFF" stroke-width="2" fill="#B01900" sketch:type="MSShapeGroup"></path>
                    <path d="M87.9520819,182.979033 C77.9989294,181.378473 67.7942341,180.532595 57.3896284,180.532595 C47.5304735,180.532595 37.8473985,181.280668 28.3920361,182.721304 L28.3920361,182.721304 L58.2991543,370.071412 L87.9520819,182.979033 Z" id="db_14_single_inner" stroke="#FFFFFF" stroke-width="2" fill="#1E1E1E" sketch:type="MSShapeGroup"></path>
                    <text id="db_txt_14" sketch:type="MSTextLayer" font-family="Helvetica" font-size="36.2018223" font-weight="normal" sketch:alignment="middle" fill="#FFFFFF">
                        <tspan x="38.3746808" y="101.507543">14</tspan>
                    </text>
                    <text id="x2" sketch:type="MSTextLayer" font-family="Helvetica" font-size="23.0375233" font-weight="normal" fill="#FFFFFF">
                        <tspan x="46.0750465" y="39.1774453">x2</tspan>
                    </text>
                    <text id="x3" sketch:type="MSTextLayer" font-family="Helvetica" font-size="23.0375233" font-weight="normal" fill="#FFFFFF">
                        <tspan x="46.0750465" y="158.325326">x3</tspan>
                    </text>
                </g>
                <g id="db_9" transform="translate(221.092225, 261.583065) rotate(306.000000) translate(-221.092225, -261.583065) translate(162.840202, 76.118904)">
                    <path d="M58.3907021,370.92602 L116.358418,4.56401119 C97.3744119,1.57128218 77.9170324,-1.98951966e-13 58.0910314,-1.98951966e-13 C38.3273514,-1.98951966e-13 18.9296408,1.55934839 -3.62376795e-13,4.53483971 L58.3907021,370.92602 Z" id="db_9_full" stroke="#FFFFFF" stroke-width="2" fill="#000000" sketch:type="MSShapeGroup"></path>
                    <path d="M106.69242,64.7341271 C90.8280108,62.2348216 74.5677528,60.9237106 58.0003479,60.9237106 C41.5176732,60.9237106 25.3381738,62.2202831 9.55055158,64.6944766 L-0.000132390962,4.8657817 C18.9000013,1.90124324 38.2661512,0.345620512 58.0003479,0.345620512 C77.7954445,0.345620512 97.2224942,1.91181671 116.176908,4.89485876 L106.69242,64.7341271 Z" id="db_9_double" stroke="#FFFFFF" stroke-width="2" fill="#00591E" sketch:type="MSShapeGroup"></path>
                    <path d="M9.55055158,64.6940801 L9.55055158,64.6940801 C25.3381738,62.2198866 41.5176732,60.923314 58.0003479,60.923314 C74.5677528,60.923314 90.8280108,62.2357468 106.69242,64.7337306 L97.3668003,123.575127 C84.3461493,121.493474 70.9971686,120.396476 57.3900256,120.396476 C44.3045029,120.396476 31.4546362,121.399634 18.9105926,123.32665 L9.55055158,64.6940801 Z" id="db_9_single_outer" stroke="#FFFFFF" stroke-width="2" fill="#7D7E6D" sketch:type="MSShapeGroup"></path>
                    <path d="M97.3668003,123.574863 C84.3461493,121.49321 70.9971686,120.396211 57.3900256,120.396211 C44.3045029,120.396211 31.4546362,121.39937 18.9105926,123.327708 L28.3924332,182.720247 C37.8464718,181.280932 47.5308707,180.532859 57.3900256,180.532859 C67.7946312,180.532859 77.9993266,181.377415 87.9524791,182.979297 L97.3668003,123.574863 Z" id="db_9_triple" stroke="#FFFFFF" stroke-width="2" fill="#00591E" sketch:type="MSShapeGroup"></path>
                    <path d="M87.9520819,182.979033 C77.9989294,181.378473 67.7942341,180.532595 57.3896284,180.532595 C47.5304735,180.532595 37.8473985,181.280668 28.3920361,182.721304 L28.3920361,182.721304 L58.2991543,370.071412 L87.9520819,182.979033 Z" id="db_9_single_inner" stroke="#FFFFFF" stroke-width="2" fill="#7D7E6D" sketch:type="MSShapeGroup"></path>
                    <text id="db_txt_9" sketch:type="MSTextLayer" font-family="Helvetica" font-size="36.2018223" font-weight="normal" sketch:alignment="middle" fill="#FFFFFF">
                        <tspan x="48.4415449" y="101.507543">9</tspan>
                    </text>
                    <text id="x2" sketch:type="MSTextLayer" font-family="Helvetica" font-size="23.0375233" font-weight="normal" fill="#FFFFFF">
                        <tspan x="46.0750465" y="39.1774453">x2</tspan>
                    </text>
                    <text id="x3" sketch:type="MSTextLayer" font-family="Helvetica" font-size="23.0375233" font-weight="normal" fill="#FFFFFF">
                        <tspan x="46.0750465" y="158.325326">x3</tspan>
                    </text>
                </g>
                <g id="db_12" transform="translate(262.028026, 220.836782) rotate(324.000000) translate(-262.028026, -220.836782) translate(203.776003, 35.372620)">
                    <path d="M58.3907021,370.92602 L116.358418,4.56401119 C97.3744119,1.57128218 77.9170324,-2.27373675e-13 58.0910314,-2.27373675e-13 C38.3273514,-2.27373675e-13 18.9296408,1.55934839 -2.13162821e-14,4.53483971 L58.3907021,370.92602 Z" id="db_12_full" stroke="#FFFFFF" stroke-width="2" fill="#000000" sketch:type="MSShapeGroup"></path>
                    <path d="M106.69242,64.7341271 C90.8280108,62.2348216 74.5677528,60.9237106 58.0003479,60.9237106 C41.5176732,60.9237106 25.3381738,62.2202831 9.55055158,64.6944766 L-0.000132390961,4.8657817 C18.9000013,1.90124324 38.2661512,0.345620512 58.0003479,0.345620512 C77.7954445,0.345620512 97.2224942,1.91181671 116.176908,4.89485876 L106.69242,64.7341271 Z" id="db_12_double" stroke="#FFFFFF" stroke-width="2" fill="#B01900" sketch:type="MSShapeGroup"></path>
                    <path d="M9.55055158,64.6940801 L9.55055158,64.6940801 C25.3381738,62.2198866 41.5176732,60.923314 58.0003479,60.923314 C74.5677528,60.923314 90.8280108,62.2357468 106.69242,64.7337306 L97.3668003,123.575127 C84.3461493,121.493474 70.9971686,120.396476 57.3900256,120.396476 C44.3045029,120.396476 31.4546362,121.399634 18.9105926,123.32665 L9.55055158,64.6940801 Z" id="db_12_single_outer" stroke="#FFFFFF" stroke-width="2" fill="#1E1E1E" sketch:type="MSShapeGroup"></path>
                    <path d="M97.3668003,123.574863 C84.3461493,121.49321 70.9971686,120.396211 57.3900256,120.396211 C44.3045029,120.396211 31.4546362,121.39937 18.9105926,123.327708 L28.3924332,182.720247 C37.8464718,181.280932 47.5308707,180.532859 57.3900256,180.532859 C67.7946312,180.532859 77.9993266,181.377415 87.9524791,182.979297 L97.3668003,123.574863 Z" id="db_12_triple" stroke="#FFFFFF" stroke-width="2" fill="#B01900" sketch:type="MSShapeGroup"></path>
                    <path d="M87.9520819,182.979033 C77.9989294,181.378473 67.7942341,180.532595 57.3896284,180.532595 C47.5304735,180.532595 37.8473985,181.280668 28.3920361,182.721304 L28.3920361,182.721304 L58.2991543,370.071412 L87.9520819,182.979033 Z" id="db_12_single_inner" stroke="#FFFFFF" stroke-width="2" fill="#1E1E1E" sketch:type="MSShapeGroup"></path>
                    <text id="db_txt_12" sketch:type="MSTextLayer" font-family="Helvetica" font-size="36.2018223" font-weight="normal" sketch:alignment="middle" fill="#FFFFFF">
                        <tspan x="38.3746808" y="101.507543">12</tspan>
                    </text>
                    <text id="x2" sketch:type="MSTextLayer" font-family="Helvetica" font-size="23.0375233" font-weight="normal" fill="#FFFFFF">
                        <tspan x="46.0750465" y="39.1774453">x2</tspan>
                    </text>
                    <text id="x3" sketch:type="MSTextLayer" font-family="Helvetica" font-size="23.0375233" font-weight="normal" fill="#FFFFFF">
                        <tspan x="46.0750465" y="158.325326">x3</tspan>
                    </text>
                </g>
                <g id="db_5" transform="translate(313.551580, 194.734622) rotate(342.000000) translate(-313.551580, -194.734622) translate(255.299557, 9.270460)">
                    <path d="M58.3907021,370.92602 L116.358418,4.56401119 C97.3744119,1.57128218 77.9170324,-1.70530257e-13 58.0910314,-1.70530257e-13 C38.3273514,-1.70530257e-13 18.9296408,1.55934839 0,4.53483971 L58.3907021,370.92602 Z" id="db_5_full" stroke="#FFFFFF" stroke-width="2" fill="#000000" sketch:type="MSShapeGroup"></path>
                    <path d="M106.69242,64.7341271 C90.8280108,62.2348216 74.5677528,60.9237106 58.0003479,60.9237106 C41.5176732,60.9237106 25.3381738,62.2202831 9.55055158,64.6944766 L-0.000132390961,4.8657817 C18.9000013,1.90124324 38.2661512,0.345620512 58.0003479,0.345620512 C77.7954445,0.345620512 97.2224942,1.91181671 116.176908,4.89485876 L106.69242,64.7341271 Z" id="db_5_double" stroke="#FFFFFF" stroke-width="2" fill="#00591E" sketch:type="MSShapeGroup"></path>
                    <path d="M9.55055158,64.6940801 L9.55055158,64.6940801 C25.3381738,62.2198866 41.5176732,60.923314 58.0003479,60.923314 C74.5677528,60.923314 90.8280108,62.2357468 106.69242,64.7337306 L97.3668003,123.575127 C84.3461493,121.493474 70.9971686,120.396476 57.3900256,120.396476 C44.3045029,120.396476 31.4546362,121.399634 18.9105926,123.32665 L9.55055158,64.6940801 Z" id="db_5_single_outer" stroke="#FFFFFF" stroke-width="2" fill="#7D7E6D" sketch:type="MSShapeGroup"></path>
                    <path d="M97.3668003,123.574863 C84.3461493,121.49321 70.9971686,120.396211 57.3900256,120.396211 C44.3045029,120.396211 31.4546362,121.39937 18.9105926,123.327708 L28.3924332,182.720247 C37.8464718,181.280932 47.5308707,180.532859 57.3900256,180.532859 C67.7946312,180.532859 77.9993266,181.377415 87.9524791,182.979297 L97.3668003,123.574863 Z" id="db_5_triple" stroke="#FFFFFF" stroke-width="2" fill="#00591E" sketch:type="MSShapeGroup"></path>
                    <path d="M87.9520819,182.979033 C77.9989294,181.378473 67.7942341,180.532595 57.3896284,180.532595 C47.5304735,180.532595 37.8473985,181.280668 28.3920361,182.721304 L28.3920361,182.721304 L58.2991543,370.071412 L87.9520819,182.979033 Z" id="db_5_single_inner" stroke="#FFFFFF" stroke-width="2" fill="#7D7E6D" sketch:type="MSShapeGroup"></path>
                    <text id="db_txt_5" sketch:type="MSTextLayer" font-family="Helvetica" font-size="36.2018223" font-weight="normal" sketch:alignment="middle" fill="#FFFFFF">
                        <tspan x="48.4415449" y="101.507543">5</tspan>
                    </text>
                    <text id="x2" sketch:type="MSTextLayer" font-family="Helvetica" font-size="23.0375233" font-weight="normal" fill="#FFFFFF">
                        <tspan x="46.0750465" y="39.1774453">x2</tspan>
                    </text>
                    <text id="x3" sketch:type="MSTextLayer" font-family="Helvetica" font-size="23.0375233" font-weight="normal" fill="#FFFFFF">
                        <tspan x="46.0750465" y="158.325326">x3</tspan>
                    </text>
                </g>
                <g id="db_25" transform="translate(280.980347, 280.980347)" stroke="#FFFFFF" stroke-width="2" sketch:type="MSShapeGroup">
                    <circle id="db_25_single" fill="#00591E" cx="89.5196532" cy="89.5196532" r="89.5196532"></circle>
                    <circle id="db_25_double" fill="#B01900" cx="89.9479769" cy="89.9479769" r="40.2624277"></circle>
                </g>
            </g>
        </g>
    </g>
</svg>
