<?xml version="1.0" encoding="UTF-8" standalone="no"?>
<svg width="48px" height="33px" viewBox="0 0 48 33" version="1.1" xmlns="http://www.w3.org/2000/svg" xmlns:xlink="http://www.w3.org/1999/xlink" xmlns:sketch="http://www.bohemiancoding.com/sketch/ns">
    <!-- Generator: Sketch 3.5.2 (25235) - http://www.bohemiancoding.com/sketch -->
    <title>Shape</title>
    <desc>Created with Sketch.</desc>
    <defs></defs>
    <g id="game---501" stroke="none" stroke-width="1" fill="none" fill-rule="evenodd" sketch:type="MSPage">
        <g id="iPad-Landscape" sketch:type="MSArtboardGroup" transform="translate(-49.000000, -688.000000)" fill="#818181">
            <g id="people" sketch:type="MSLayerGroup" transform="translate(27.000000, 656.000000)">
                <g id="list" transform="translate(22.000000, 32.000000)" sketch:type="MSShapeGroup">
                    <path d="M0,19.8 L5.33333333,19.8 L5.33333333,13.2 L0,13.2 L0,19.8 L0,19.8 Z M0,33 L5.33333333,33 L5.33333333,26.4 L0,26.4 L0,33 L0,33 Z M0,6.6 L5.33333333,6.6 L5.33333333,0 L0,0 L0,6.6 L0,6.6 Z M10.6666667,19.8 L48,19.8 L48,13.2 L10.6666667,13.2 L10.6666667,19.8 L10.6666667,19.8 Z M10.6666667,33 L48,33 L48,26.4 L10.6666667,26.4 L10.6666667,33 L10.6666667,33 Z M10.6666667,0 L10.6666667,6.6 L48,6.6 L48,0 L10.6666667,0 L10.6666667,0 Z" id="Shape"></path>
                </g>
            </g>
        </g>
    </g>
</svg>