<?xml version="1.0" encoding="UTF-8" standalone="no"?>
<svg width="55px" height="58px" viewBox="0 0 55 58" version="1.1" xmlns="http://www.w3.org/2000/svg" xmlns:xlink="http://www.w3.org/1999/xlink" xmlns:sketch="http://www.bohemiancoding.com/sketch/ns">
    <!-- Generator: Sketch 3.5.2 (25235) - http://www.bohemiancoding.com/sketch -->
    <title>miss</title>
    <desc>Created with Sketch.</desc>
    <defs></defs>
    <g id="game---501" stroke="none" stroke-width="1" fill="none" fill-rule="evenodd" sketch:type="MSPage">
        <g id="iPad-Landscape" sketch:type="MSArtboardGroup" transform="translate(-120.000000, -236.000000)">
            <g id="miss" sketch:type="MSLayerGroup" transform="translate(114.000000, 230.000000)">
                <g id="dart" transform="translate(16.000000, 7.000000)" sketch:type="MSShapeGroup">
                    <circle id="Oval-1" fill="#303030" cx="19.0402714" cy="18.5162273" r="6.55055209"></circle>
                    <circle id="Oval-2" stroke="#2F2F2F" stroke-width="2" cx="18.9927458" cy="18.5637529" r="12.2262984"></circle>
                    <circle id="Oval-3" stroke="#2E2E2E" stroke-width="2" cx="18.7782493" cy="18.7782493" r="18.4466959"></circle>
                </g>
                <g id="arrow" transform="translate(38.058699, 32.058699) rotate(-315.000000) translate(-38.058699, -32.058699) translate(30.920768, 5.172492)" fill="#D40000" sketch:type="MSShapeGroup">
                    <path d="M6.93380773,53.4314458 L6.57725621,52.1458438 L6.52416715,45.9846829 C6.52416715,45.9846829 4.89392811,45.3818865 4.93351995,43.9755889 C4.68652086,42.1719731 4.88065585,38.2165196 4.88065585,38.2165196 L5.1987403,37.8948918 L6.31203586,15.1254631 C6.31203586,15.1254631 5.18861738,14.097618 3.42250635,12.3130952 C-2.88114458,5.94372858 0.49338499,-3.21800363 6.59075343,1.73779182 L6.89534066,0.123288538 L6.9722748,0.123288538 L7.27686203,1.73779182 C13.3742305,-3.21800363 16.74876,5.93327284 10.4451091,12.3026394 C8.67899807,14.0871622 7.55557959,15.1200079 7.55557959,15.1200079 L8.66887516,37.8923915 L8.98695961,38.2151558 C8.98695961,38.2151558 9.1810946,42.1712912 8.9340955,43.974907 C8.97368734,45.3812046 7.34344831,45.9842283 7.34344831,45.9842283 L7.29035925,52.1456165 L6.93380773,53.4314458"></path>
                </g>
                <path d="M12.4964574,38.8472117 L12.4964574,45.9851428 M21.7498031,42.680073 L16.7025236,47.7273524 M21.7498031,61.1867643 L16.7025236,56.1394848 M12.4964574,65.0196255 L12.4964574,57.8816945" stroke="#D30000" stroke-width="2" stroke-linecap="square" sketch:type="MSShapeGroup" transform="translate(17.053442, 51.933419) rotate(-218.000000) translate(-17.053442, -51.933419) "></path>
            </g>
        </g>
    </g>
</svg>