<?xml version="1.0" encoding="UTF-8" standalone="no"?>
<svg width="55px" height="41px" viewBox="0 0 55 41" version="1.1" xmlns="http://www.w3.org/2000/svg" xmlns:xlink="http://www.w3.org/1999/xlink">
    <!-- Generator: Sketch 3.6.1 (26313) - http://www.bohemiancoding.com/sketch -->
    <title>backspace</title>
    <desc>Created with Sketch.</desc>
    <defs></defs>
    <g id="game-501---options" stroke="none" stroke-width="1" fill="none" fill-rule="evenodd">
        <g id="Desktop-HD" transform="translate(-630.000000, -118.000000)" fill="#000000">
            <g id="backspace" transform="translate(630.000000, 118.000000)">
                <path d="M50.4166667,0 L16.0416667,0 C14.4375,0 13.2916667,0.683333333 12.375,2.05 L0,20.5 L12.375,38.95 C13.2916667,40.0888889 14.4375,41 16.0416667,41 L50.4166667,41 C52.9375,41 55,38.95 55,36.4444444 L55,4.55555556 C55,2.05 52.9375,0 50.4166667,0 L50.4166667,0 Z M43.5416667,28.7 L40.3333333,31.8888889 L32.0833333,23.6888889 L23.8333333,31.8888889 L20.625,28.7 L28.875,20.5 L20.625,12.3 L23.8333333,9.11111111 L32.0833333,17.3111111 L40.3333333,9.11111111 L43.5416667,12.3 L35.2916667,20.5 L43.5416667,28.7 L43.5416667,28.7 Z" id="Shape"></path>
            </g>
        </g>
    </g>
</svg>