<?xml version="1.0" encoding="UTF-8" standalone="no"?>
<svg width="121px" height="77px" viewBox="0 0 121 77" version="1.1" xmlns="http://www.w3.org/2000/svg" xmlns:xlink="http://www.w3.org/1999/xlink">
    <!-- Generator: Sketch 3.6.1 (26313) - http://www.bohemiancoding.com/sketch -->
    <title>people</title>
    <desc>Created with Sketch.</desc>
    <defs></defs>
    <g id="game-501---options" stroke="none" stroke-width="1" fill="none" fill-rule="evenodd">
        <g id="Desktop-HD" transform="translate(-120.000000, -272.000000)" fill="#000000">
            <g id="people" transform="translate(120.000000, 272.000000)">
                <path d="M82.5,33 C91.85,33 99,25.85 99,16.5 C99,7.15 91.85,0 82.5,0 C73.15,0 66,7.15 66,16.5 C66,25.85 73.15,33 82.5,33 L82.5,33 Z M38.5,33 C47.85,33 55,25.85 55,16.5 C55,7.15 47.85,0 38.5,0 C29.15,0 22,7.15 22,16.5 C22,25.85 29.15,33 38.5,33 L38.5,33 Z M38.5,44 C25.85,44 0,50.6 0,63.25 L0,77 L77,77 L77,63.25 C77,50.6 51.15,44 38.5,44 L38.5,44 Z M82.5,44 C80.85,44 79.2,44 77,44.55 C83.6,48.95 88,55.55 88,63.25 L88,77 L121,77 L121,63.25 C121,50.6 95.15,44 82.5,44 L82.5,44 Z" id="Shape"></path>
            </g>
        </g>
    </g>
</svg>