<?xml version="1.0" encoding="UTF-8" standalone="no"?>
<svg class="players-bg" width="78px" height="77px" viewBox="0 0 78 77" version="1.1" xmlns="http://www.w3.org/2000/svg">
    <g stroke="none" stroke-width="1" fill="none" fill-rule="evenodd">
        <g transform="translate(-271.000000, -272.000000)" fill="none">
            <g id="settings" transform="translate(271.000000, 272.000000)">
                <path d="M68.5555394,38.6744713 C68.5555394,37.1274924 68.5555394,35.9672583 68.1578914,34.8070242 L76.5084984,28.232364 C77.3037943,27.4588746 77.3037943,26.6853852 76.9061463,25.9118958 L68.9531873,12.3758308 C68.5555394,11.9890861 67.7602435,11.6023414 66.5672996,11.9890861 L56.6261009,15.8565332 C54.6378611,14.3095544 52.2519734,13.1493202 49.8660857,11.9890861 L48.2754939,1.93372356 C48.6731419,0.773489426 47.480198,0 46.6849021,0 L30.7789842,0 C29.9836883,0 28.7907444,0.773489426 28.7907444,1.54697885 L27.2001526,11.9890861 C24.8142649,12.7625755 22.8260252,14.3095544 20.4401375,15.8565332 L10.8965867,11.9890861 C9.70364282,11.6023414 8.90834692,11.9890861 8.11305103,12.7625755 L0.160092032,26.2986405 C-0.237555918,26.6853852 0.160092032,27.8456193 0.955387931,28.6191088 L9.30599487,34.8070242 C9.30599487,35.9672583 8.90834692,37.1274924 8.90834692,38.6744713 C8.90834692,40.2214502 8.90834692,41.3816843 9.30599487,42.5419184 L0.955387931,49.1165785 C0.160092032,49.890068 0.160092032,50.6635574 0.557739981,51.4370468 L8.51069897,64.9731118 C8.90834692,65.3598565 9.70364282,65.7466012 10.8965867,65.3598565 L20.8377854,61.4924094 C22.8260252,63.0393882 25.2119129,64.1996224 27.5978006,65.3598565 L29.1883924,75.415219 C29.1883924,76.1887085 29.9836883,76.9621979 31.1766321,76.9621979 L47.0825501,76.9621979 C47.877846,76.9621979 49.0707898,76.1887085 49.0707898,75.415219 L50.6613816,65.3598565 C53.0472693,64.1996224 55.433157,63.0393882 57.4213968,61.4924094 L67.3625955,65.3598565 C68.1578914,65.7466012 69.3508353,65.3598565 69.7484832,64.5863671 L77.7014422,51.0503021 C78.0990902,50.2768127 78.0990902,49.1165785 77.3037943,48.7298338 L68.1578914,42.5419184 C68.1578914,41.3816843 68.5555394,40.2214502 68.5555394,38.6744713 Z M38.7319432,52.2105363 C31.1766321,52.2105363 24.8142649,46.0226208 24.8142649,38.6744713 C24.8142649,31.3263218 31.1766321,25.1384063 38.7319432,25.1384063 C46.2872542,25.1384063 52.6496214,31.3263218 52.6496214,38.6744713 C52.6496214,46.0226208 46.2872542,52.2105363 38.7319432,52.2105363 L38.7319432,52.2105363 Z"></path>
            </g>
        </g>
    </g>
</svg>
