<?xml version="1.0" encoding="UTF-8" standalone="no"?>
<svg width="628px" height="629px" viewBox="0 0 628 629" version="1.1" xmlns="http://www.w3.org/2000/svg" xmlns:xlink="http://www.w3.org/1999/xlink">
    <!-- Generator: Sketch 3.6.1 (26313) - http://www.bohemiancoding.com/sketch -->
    <title>dartsBoard</title>
    <desc>Created with Sketch.</desc>
    <defs></defs>
    <g id="home" stroke="none" stroke-width="1" fill="none" fill-rule="evenodd">
        <g id="Desktop-HD" transform="translate(-338.000000, -198.000000)">
            <g id="dartsBoard" transform="translate(337.000000, 198.000000)">
                <g id="db_20" transform="translate(264.319777, 0.501767)">
                    <path d="M0.660788382,3.87748428 L49.5893661,313.998571 L99.606246,3.90111855 C83.4640357,1.35199311 66.9200428,0.0127174912 50.0609262,0.0127174912 C33.2524545,0.0127174912 16.7568555,1.34298958 0.660788382,3.87748428" id="db_20_full" fill="#1E1E1E"></path>
                    <path d="M49.5894787,313.998233 L78.0271394,137.689913 C68.7478727,136.214459 59.2356394,135.43903 49.5422101,135.43903 C40.0907507,135.43903 30.811484,136.170567 21.7550546,137.573993 L49.5894787,313.998233 Z" id="db_20_single_inner" fill="#1E1E1E"></path>
                    <path d="M81.1639705,118.244419 C70.8639281,116.605776 60.3039087,115.743688 49.5413098,115.743688 C39.0465659,115.743688 28.7420218,116.557382 18.6850748,118.117244 L3.73020552,23.3336701 C18.825755,20.9567373 34.2960765,19.7086224 50.0601384,19.7086224 C65.8523363,19.7086224 81.3496684,20.961239 96.4699776,23.3471754 L81.1639705,118.244419 Z" id="db_20_single_outer" fill="#1E1E1E"></path>
                    <path d="M50.060476,19.7083973 C65.8515485,19.7083973 81.350006,20.961014 96.4691898,23.3469504 L99.6057958,3.90156873 C83.464711,1.35244329 66.9195926,0.0131676678 50.060476,0.0131676678 C33.2520043,0.0131676678 16.7564053,1.34343975 0.660338205,3.87793445 L3.73054315,23.3345705 C18.8260926,20.9565122 34.2964142,19.7083973 50.060476,19.7083973" id="db_20_double" fill="#B01800"></path>
                    <path d="M49.5416474,135.438805 C59.2350767,135.438805 68.7473099,136.214234 78.0277022,137.689688 L81.1643082,118.244307 C70.8631403,116.606789 60.3042463,115.743575 49.5416474,115.743575 C39.0469036,115.743575 28.7423594,116.558395 18.6854124,118.117132 L21.7544919,137.573768 C30.8120467,136.170342 40.0913135,135.438805 49.5416474,135.438805" id="db_20_triple" fill="#B01800"></path>
                    <text id="db_txt_20" font-family="Monaco" font-size="54.0212014" font-weight="normal" fill="#FFFFFF">
                        <tspan x="17.5424138" y="96.7667845">20</tspan>
                    </text>
                </g>
                <g id="db_1" transform="translate(363.017610, 165.157657) rotate(18.000000) translate(-363.017610, -165.157657) translate(313.017610, 8.157657)">
                    <path d="M0.660788382,3.87748428 L49.5893661,313.998571 L99.606246,3.90111855 C83.4640357,1.35199311 66.9200428,0.0127174912 50.0609262,0.0127174912 C33.2524545,0.0127174912 16.7568555,1.34298958 0.660788382,3.87748428" id="db_1_full" fill="#D9D9D1"></path>
                    <path d="M49.5894787,313.998233 L78.0271394,137.689913 C68.7478727,136.214459 59.2356394,135.43903 49.5422101,135.43903 C40.0907507,135.43903 30.811484,136.170567 21.7550546,137.573993 L49.5894787,313.998233 Z" id="db_1_single_inner" fill="#D9D9D1"></path>
                    <path d="M81.1639705,118.244419 C70.8639281,116.605776 60.3039087,115.743688 49.5413098,115.743688 C39.0465659,115.743688 28.7420218,116.557382 18.6850748,118.117244 L3.73020552,23.3336701 C18.825755,20.9567373 34.2960765,19.7086224 50.0601384,19.7086224 C65.8523363,19.7086224 81.3496684,20.961239 96.4699776,23.3471754 L81.1639705,118.244419 Z" id="db_1_single_outer" fill="#D9D9D1"></path>
                    <path d="M50.060476,19.7083973 C65.8515485,19.7083973 81.350006,20.961014 96.4691898,23.3469504 L99.6057958,3.90156873 C83.464711,1.35244329 66.9195926,0.0131676678 50.060476,0.0131676678 C33.2520043,0.0131676678 16.7564053,1.34343975 0.660338205,3.87793445 L3.73054315,23.3345705 C18.8260926,20.9565122 34.2964142,19.7083973 50.060476,19.7083973" id="db_1_double" fill="#00591E"></path>
                    <path d="M49.5416474,135.438805 C59.2350767,135.438805 68.7473099,136.214234 78.0277022,137.689688 L81.1643082,118.244307 C70.8631403,116.606789 60.3042463,115.743575 49.5416474,115.743575 C39.0469036,115.743575 28.7423594,116.558395 18.6854124,118.117132 L21.7544919,137.573768 C30.8120467,136.170342 40.0913135,135.438805 49.5416474,135.438805" id="db_1_triple" fill="#00591E"></path>
                    <text id="db_txt_1" transform="translate(50.091902, 77.798894) rotate(3.000000) translate(-50.091902, -77.798894) " font-family="Monaco" font-size="54.0212014" font-weight="normal" fill="#FFFFFF">
                        <tspan x="33.5721924" y="95.7859268">1</tspan>
                    </text>
                </g>
                <g id="db_18" transform="translate(406.809333, 187.407370) rotate(36.000000) translate(-406.809333, -187.407370) translate(356.809333, 30.407370)">
                    <path d="M0.660788382,3.87748428 L49.5893661,313.998571 L99.606246,3.90111855 C83.4640357,1.35199311 66.9200428,0.0127174912 50.0609262,0.0127174912 C33.2524545,0.0127174912 16.7568555,1.34298958 0.660788382,3.87748428" id="db_18_full" fill="#1E1E1E"></path>
                    <path d="M49.5894787,313.998233 L78.0271394,137.689913 C68.7478727,136.214459 59.2356394,135.43903 49.5422101,135.43903 C40.0907507,135.43903 30.811484,136.170567 21.7550546,137.573993 L49.5894787,313.998233 Z" id="db_18_single_inner" fill="#1E1E1E"></path>
                    <path d="M81.1639705,118.244419 C70.8639281,116.605776 60.3039087,115.743688 49.5413098,115.743688 C39.0465659,115.743688 28.7420218,116.557382 18.6850748,118.117244 L3.73020552,23.3336701 C18.825755,20.9567373 34.2960765,19.7086224 50.0601384,19.7086224 C65.8523363,19.7086224 81.3496684,20.961239 96.4699776,23.3471754 L81.1639705,118.244419 Z" id="db_18_single_outer" fill="#1E1E1E"></path>
                    <path d="M50.060476,19.7083973 C65.8515485,19.7083973 81.350006,20.961014 96.4691898,23.3469504 L99.6057958,3.90156873 C83.464711,1.35244329 66.9195926,0.0131676678 50.060476,0.0131676678 C33.2520043,0.0131676678 16.7564053,1.34343975 0.660338205,3.87793445 L3.73054315,23.3345705 C18.8260926,20.9565122 34.2964142,19.7083973 50.060476,19.7083973" id="db_18_double" fill="#B01800"></path>
                    <path d="M49.5416474,135.438805 C59.2350767,135.438805 68.7473099,136.214234 78.0277022,137.689688 L81.1643082,118.244307 C70.8631403,116.606789 60.3042463,115.743575 49.5416474,115.743575 C39.0469036,115.743575 28.7423594,116.558395 18.6854124,118.117132 L21.7544919,137.573768 C30.8120467,136.170342 40.0913135,135.438805 49.5416474,135.438805" id="db_18_triple" fill="#B01800"></path>
                    <text id="db_txt_18" font-family="Monaco" font-size="54.0212014" font-weight="normal" fill="#FFFFFF">
                        <tspan x="16.4169721" y="96.7667845">18</tspan>
                    </text>
                </g>
                <g id="db_4" transform="translate(441.863557, 222.304912) rotate(54.000000) translate(-441.863557, -222.304912) translate(391.863557, 65.304912)">
                    <path d="M0.660788382,3.87748428 L49.5893661,313.998571 L99.606246,3.90111855 C83.4640357,1.35199311 66.9200428,0.0127174912 50.0609262,0.0127174912 C33.2524545,0.0127174912 16.7568555,1.34298958 0.660788382,3.87748428" id="db_4_full" fill="#D9D9D1"></path>
                    <path d="M49.5894787,313.998233 L78.0271394,137.689913 C68.7478727,136.214459 59.2356394,135.43903 49.5422101,135.43903 C40.0907507,135.43903 30.811484,136.170567 21.7550546,137.573993 L49.5894787,313.998233 Z" id="db_4_single_inner" fill="#D9D9D1"></path>
                    <path d="M81.1639705,118.244419 C70.8639281,116.605776 60.3039087,115.743688 49.5413098,115.743688 C39.0465659,115.743688 28.7420218,116.557382 18.6850748,118.117244 L3.73020552,23.3336701 C18.825755,20.9567373 34.2960765,19.7086224 50.0601384,19.7086224 C65.8523363,19.7086224 81.3496684,20.961239 96.4699776,23.3471754 L81.1639705,118.244419 Z" id="db_4_single_outer" fill="#D9D9D1"></path>
                    <path d="M50.060476,19.7083973 C65.8515485,19.7083973 81.350006,20.961014 96.4691898,23.3469504 L99.6057958,3.90156873 C83.464711,1.35244329 66.9195926,0.0131676678 50.060476,0.0131676678 C33.2520043,0.0131676678 16.7564053,1.34343975 0.660338205,3.87793445 L3.73054315,23.3345705 C18.8260926,20.9565122 34.2964142,19.7083973 50.060476,19.7083973" id="db_4_double" fill="#00591E"></path>
                    <path d="M49.5416474,135.438805 C59.2350767,135.438805 68.7473099,136.214234 78.0277022,137.689688 L81.1643082,118.244307 C70.8631403,116.606789 60.3042463,115.743575 49.5416474,115.743575 C39.0469036,115.743575 28.7423594,116.558395 18.6854124,118.117132 L21.7544919,137.573768 C30.8120467,136.170342 40.0913135,135.438805 49.5416474,135.438805" id="db_4_triple" fill="#00591E"></path>
                    <text id="db_txt_4" transform="translate(50.091902, 77.798894) rotate(3.000000) translate(-50.091902, -77.798894) " font-family="Monaco" font-size="54.0212014" font-weight="normal" fill="#FFFFFF">
                        <tspan x="33.5721924" y="95.7859268">4</tspan>
                    </text>
                </g>
                <g id="db_13" transform="translate(464.136811, 266.122378) rotate(72.000000) translate(-464.136811, -266.122378) translate(414.136811, 109.122378)">
                    <path d="M0.660788382,3.87748428 L49.5893661,313.998571 L99.606246,3.90111855 C83.4640357,1.35199311 66.9200428,0.0127174912 50.0609262,0.0127174912 C33.2524545,0.0127174912 16.7568555,1.34298958 0.660788382,3.87748428" id="db_13_full" fill="#1E1E1E"></path>
                    <path d="M49.5894787,313.998233 L78.0271394,137.689913 C68.7478727,136.214459 59.2356394,135.43903 49.5422101,135.43903 C40.0907507,135.43903 30.811484,136.170567 21.7550546,137.573993 L49.5894787,313.998233 Z" id="db_13_single_inner" fill="#1E1E1E"></path>
                    <path d="M81.1639705,118.244419 C70.8639281,116.605776 60.3039087,115.743688 49.5413098,115.743688 C39.0465659,115.743688 28.7420218,116.557382 18.6850748,118.117244 L3.73020552,23.3336701 C18.825755,20.9567373 34.2960765,19.7086224 50.0601384,19.7086224 C65.8523363,19.7086224 81.3496684,20.961239 96.4699776,23.3471754 L81.1639705,118.244419 Z" id="db_13_single_outer" fill="#1E1E1E"></path>
                    <path d="M50.060476,19.7083973 C65.8515485,19.7083973 81.350006,20.961014 96.4691898,23.3469504 L99.6057958,3.90156873 C83.464711,1.35244329 66.9195926,0.0131676678 50.060476,0.0131676678 C33.2520043,0.0131676678 16.7564053,1.34343975 0.660338205,3.87793445 L3.73054315,23.3345705 C18.8260926,20.9565122 34.2964142,19.7083973 50.060476,19.7083973" id="db_13_double" fill="#B01800"></path>
                    <path d="M49.5416474,135.438805 C59.2350767,135.438805 68.7473099,136.214234 78.0277022,137.689688 L81.1643082,118.244307 C70.8631403,116.606789 60.3042463,115.743575 49.5416474,115.743575 C39.0469036,115.743575 28.7423594,116.558395 18.6854124,118.117132 L21.7544919,137.573768 C30.8120467,136.170342 40.0913135,135.438805 49.5416474,135.438805" id="db_13_triple" fill="#B01800"></path>
                    <text id="db_txt_13" font-family="Monaco" font-size="54.0212014" font-weight="normal" fill="#FFFFFF">
                        <tspan x="16.4169721" y="96.7667845">13</tspan>
                    </text>
                </g>
                <g id="db_6" transform="translate(471.953484, 314.551739) rotate(90.000000) translate(-471.953484, -314.551739) translate(421.953484, 157.551739)">
                    <path d="M0.660788382,3.87748428 L49.5893661,313.998571 L99.606246,3.90111855 C83.4640357,1.35199311 66.9200428,0.0127174912 50.0609262,0.0127174912 C33.2524545,0.0127174912 16.7568555,1.34298958 0.660788382,3.87748428" id="db_6_full" fill="#D9D9D1"></path>
                    <path d="M49.5894787,313.998233 L78.0271394,137.689913 C68.7478727,136.214459 59.2356394,135.43903 49.5422101,135.43903 C40.0907507,135.43903 30.811484,136.170567 21.7550546,137.573993 L49.5894787,313.998233 Z" id="db_6_single_inner" fill="#D9D9D1"></path>
                    <path d="M81.1639705,118.244419 C70.8639281,116.605776 60.3039087,115.743688 49.5413098,115.743688 C39.0465659,115.743688 28.7420218,116.557382 18.6850748,118.117244 L3.73020552,23.3336701 C18.825755,20.9567373 34.2960765,19.7086224 50.0601384,19.7086224 C65.8523363,19.7086224 81.3496684,20.961239 96.4699776,23.3471754 L81.1639705,118.244419 Z" id="db_6_single_outer" fill="#D9D9D1"></path>
                    <path d="M50.060476,19.7083973 C65.8515485,19.7083973 81.350006,20.961014 96.4691898,23.3469504 L99.6057958,3.90156873 C83.464711,1.35244329 66.9195926,0.0131676678 50.060476,0.0131676678 C33.2520043,0.0131676678 16.7564053,1.34343975 0.660338205,3.87793445 L3.73054315,23.3345705 C18.8260926,20.9565122 34.2964142,19.7083973 50.060476,19.7083973" id="db_6_double" fill="#00591E"></path>
                    <path d="M49.5416474,135.438805 C59.2350767,135.438805 68.7473099,136.214234 78.0277022,137.689688 L81.1643082,118.244307 C70.8631403,116.606789 60.3042463,115.743575 49.5416474,115.743575 C39.0469036,115.743575 28.7423594,116.558395 18.6854124,118.117132 L21.7544919,137.573768 C30.8120467,136.170342 40.0913135,135.438805 49.5416474,135.438805" id="db_6_triple" fill="#00591E"></path>
                    <text id="db_txt_6" transform="translate(50.091902, 77.798894) rotate(3.000000) translate(-50.091902, -77.798894) " font-family="Monaco" font-size="54.0212014" font-weight="normal" fill="#FFFFFF">
                        <tspan x="33.5721924" y="95.7859268">6</tspan>
                    </text>
                </g>
                <g id="db_10" transform="translate(464.248195, 363.152622) rotate(108.000000) translate(-464.248195, -363.152622) translate(414.248195, 206.152622)">
                    <path d="M0.660788382,3.87748428 L49.5893661,313.998571 L99.606246,3.90111855 C83.4640357,1.35199311 66.9200428,0.0127174912 50.0609262,0.0127174912 C33.2524545,0.0127174912 16.7568555,1.34298958 0.660788382,3.87748428" id="db_10_full" fill="#1E1E1E"></path>
                    <path d="M49.5894787,313.998233 L78.0271394,137.689913 C68.7478727,136.214459 59.2356394,135.43903 49.5422101,135.43903 C40.0907507,135.43903 30.811484,136.170567 21.7550546,137.573993 L49.5894787,313.998233 Z" id="db_10_single_inner" fill="#1E1E1E"></path>
                    <path d="M81.1639705,118.244419 C70.8639281,116.605776 60.3039087,115.743688 49.5413098,115.743688 C39.0465659,115.743688 28.7420218,116.557382 18.6850748,118.117244 L3.73020552,23.3336701 C18.825755,20.9567373 34.2960765,19.7086224 50.0601384,19.7086224 C65.8523363,19.7086224 81.3496684,20.961239 96.4699776,23.3471754 L81.1639705,118.244419 Z" id="db_10_single_outer" fill="#1E1E1E"></path>
                    <path d="M50.060476,19.7083973 C65.8515485,19.7083973 81.350006,20.961014 96.4691898,23.3469504 L99.6057958,3.90156873 C83.464711,1.35244329 66.9195926,0.0131676678 50.060476,0.0131676678 C33.2520043,0.0131676678 16.7564053,1.34343975 0.660338205,3.87793445 L3.73054315,23.3345705 C18.8260926,20.9565122 34.2964142,19.7083973 50.060476,19.7083973" id="db_10_double" fill="#B01800"></path>
                    <path d="M49.5416474,135.438805 C59.2350767,135.438805 68.7473099,136.214234 78.0277022,137.689688 L81.1643082,118.244307 C70.8631403,116.606789 60.3042463,115.743575 49.5416474,115.743575 C39.0469036,115.743575 28.7423594,116.558395 18.6854124,118.117132 L21.7544919,137.573768 C30.8120467,136.170342 40.0913135,135.438805 49.5416474,135.438805" id="db_10_triple" fill="#B01800"></path>
                    <text id="db_txt_10" transform="translate(49.125997, 78.779751) scale(-1, -1) translate(-49.125997, -78.779751) " font-family="Monaco" font-size="54.0212014" font-weight="normal" fill="#FFFFFF">
                        <tspan x="16.4169721" y="96.7667845">10</tspan>
                    </text>
                </g>
                <g id="db_15" transform="translate(441.967952, 407.198163) rotate(126.000000) translate(-441.967952, -407.198163) translate(391.967952, 250.198163)">
                    <path d="M0.660788382,3.87748428 L49.5893661,313.998571 L99.606246,3.90111855 C83.4640357,1.35199311 66.9200428,0.0127174912 50.0609262,0.0127174912 C33.2524545,0.0127174912 16.7568555,1.34298958 0.660788382,3.87748428" id="db_15_full" fill="#D9D9D1"></path>
                    <path d="M49.5894787,313.998233 L78.0271394,137.689913 C68.7478727,136.214459 59.2356394,135.43903 49.5422101,135.43903 C40.0907507,135.43903 30.811484,136.170567 21.7550546,137.573993 L49.5894787,313.998233 Z" id="db_15_single_inner" fill="#D9D9D1"></path>
                    <path d="M81.1639705,118.244419 C70.8639281,116.605776 60.3039087,115.743688 49.5413098,115.743688 C39.0465659,115.743688 28.7420218,116.557382 18.6850748,118.117244 L3.73020552,23.3336701 C18.825755,20.9567373 34.2960765,19.7086224 50.0601384,19.7086224 C65.8523363,19.7086224 81.3496684,20.961239 96.4699776,23.3471754 L81.1639705,118.244419 Z" id="db_15_single_outer" fill="#D9D9D1"></path>
                    <path d="M50.060476,19.7083973 C65.8515485,19.7083973 81.350006,20.961014 96.4691898,23.3469504 L99.6057958,3.90156873 C83.464711,1.35244329 66.9195926,0.0131676678 50.060476,0.0131676678 C33.2520043,0.0131676678 16.7564053,1.34343975 0.660338205,3.87793445 L3.73054315,23.3345705 C18.8260926,20.9565122 34.2964142,19.7083973 50.060476,19.7083973" id="db_15_double" fill="#00591E"></path>
                    <path d="M49.5416474,135.438805 C59.2350767,135.438805 68.7473099,136.214234 78.0277022,137.689688 L81.1643082,118.244307 C70.8631403,116.606789 60.3042463,115.743575 49.5416474,115.743575 C39.0469036,115.743575 28.7423594,116.558395 18.6854124,118.117132 L21.7544919,137.573768 C30.8120467,136.170342 40.0913135,135.438805 49.5416474,135.438805" id="db_15_triple" fill="#00591E"></path>
                    <text id="db_txt_15" transform="translate(49.125997, 78.779751) scale(-1, -1) translate(-49.125997, -78.779751) " font-family="Monaco" font-size="54.0212014" font-weight="normal" fill="#FFFFFF">
                        <tspan x="16.4169721" y="96.7667845">15</tspan>
                    </text>
                </g>
                <g id="db_2" transform="translate(407.509781, 441.435848) rotate(144.000000) translate(-407.509781, -441.435848) translate(357.509781, 284.435848)">
                    <path d="M0.660788382,3.87748428 L49.5893661,313.998571 L99.606246,3.90111855 C83.4640357,1.35199311 66.9200428,0.0127174912 50.0609262,0.0127174912 C33.2524545,0.0127174912 16.7568555,1.34298958 0.660788382,3.87748428" id="db_2_full" fill="#1E1E1E"></path>
                    <path d="M49.5894787,313.998233 L78.0271394,137.689913 C68.7478727,136.214459 59.2356394,135.43903 49.5422101,135.43903 C40.0907507,135.43903 30.811484,136.170567 21.7550546,137.573993 L49.5894787,313.998233 Z" id="db_2_single_inner" fill="#1E1E1E"></path>
                    <path d="M81.1639705,118.244419 C70.8639281,116.605776 60.3039087,115.743688 49.5413098,115.743688 C39.0465659,115.743688 28.7420218,116.557382 18.6850748,118.117244 L3.73020552,23.3336701 C18.825755,20.9567373 34.2960765,19.7086224 50.0601384,19.7086224 C65.8523363,19.7086224 81.3496684,20.961239 96.4699776,23.3471754 L81.1639705,118.244419 Z" id="db_2_single_outer" fill="#1E1E1E"></path>
                    <path d="M50.060476,19.7083973 C65.8515485,19.7083973 81.350006,20.961014 96.4691898,23.3469504 L99.6057958,3.90156873 C83.464711,1.35244329 66.9195926,0.0131676678 50.060476,0.0131676678 C33.2520043,0.0131676678 16.7564053,1.34343975 0.660338205,3.87793445 L3.73054315,23.3345705 C18.8260926,20.9565122 34.2964142,19.7083973 50.060476,19.7083973" id="db_2_double" fill="#B01800"></path>
                    <path d="M49.5416474,135.438805 C59.2350767,135.438805 68.7473099,136.214234 78.0277022,137.689688 L81.1643082,118.244307 C70.8631403,116.606789 60.3042463,115.743575 49.5416474,115.743575 C39.0469036,115.743575 28.7423594,116.558395 18.6854124,118.117132 L21.7544919,137.573768 C30.8120467,136.170342 40.0913135,135.438805 49.5416474,135.438805" id="db_2_triple" fill="#B01800"></path>
                    <text id="db_txt_2" transform="translate(50.334322, 78.055592) scale(-1, -1) rotate(2.000000) translate(-50.334322, -78.055592) " font-family="Monaco" font-size="54.0212014" font-weight="normal" fill="#FFFFFF">
                        <tspan x="33.8146126" y="96.0426251">2</tspan>
                    </text>
                </g>
                <g id="db_17" transform="translate(363.329885, 464.039861) rotate(162.000000) translate(-363.329885, -464.039861) translate(313.329885, 307.039861)">
                    <path d="M0.660788382,3.87748428 L49.5893661,313.998571 L99.606246,3.90111855 C83.4640357,1.35199311 66.9200428,0.0127174912 50.0609262,0.0127174912 C33.2524545,0.0127174912 16.7568555,1.34298958 0.660788382,3.87748428" id="db_17_full" fill="#D9D9D1"></path>
                    <path d="M49.5894787,313.998233 L78.0271394,137.689913 C68.7478727,136.214459 59.2356394,135.43903 49.5422101,135.43903 C40.0907507,135.43903 30.811484,136.170567 21.7550546,137.573993 L49.5894787,313.998233 Z" id="db_17_single_inner" fill="#D9D9D1"></path>
                    <path d="M81.1639705,118.244419 C70.8639281,116.605776 60.3039087,115.743688 49.5413098,115.743688 C39.0465659,115.743688 28.7420218,116.557382 18.6850748,118.117244 L3.73020552,23.3336701 C18.825755,20.9567373 34.2960765,19.7086224 50.0601384,19.7086224 C65.8523363,19.7086224 81.3496684,20.961239 96.4699776,23.3471754 L81.1639705,118.244419 Z" id="db_17_single_outer" fill="#D9D9D1"></path>
                    <path d="M50.060476,19.7083973 C65.8515485,19.7083973 81.350006,20.961014 96.4691898,23.3469504 L99.6057958,3.90156873 C83.464711,1.35244329 66.9195926,0.0131676678 50.060476,0.0131676678 C33.2520043,0.0131676678 16.7564053,1.34343975 0.660338205,3.87793445 L3.73054315,23.3345705 C18.8260926,20.9565122 34.2964142,19.7083973 50.060476,19.7083973" id="db_17_double" fill="#00591E"></path>
                    <path d="M49.5416474,135.438805 C59.2350767,135.438805 68.7473099,136.214234 78.0277022,137.689688 L81.1643082,118.244307 C70.8631403,116.606789 60.3042463,115.743575 49.5416474,115.743575 C39.0469036,115.743575 28.7423594,116.558395 18.6854124,118.117132 L21.7544919,137.573768 C30.8120467,136.170342 40.0913135,135.438805 49.5416474,135.438805" id="db_17_triple" fill="#00591E"></path>
                    <text id="db_txt_17" transform="translate(49.125997, 78.779751) scale(-1, -1) translate(-49.125997, -78.779751) " font-family="Monaco" font-size="54.0212014" font-weight="normal" fill="#FFFFFF">
                        <tspan x="16.4169721" y="96.7667845">17</tspan>
                    </text>
                </g>
                <g id="db_3" transform="translate(315.370424, 471.856534) rotate(180.000000) translate(-315.370424, -471.856534) translate(265.370424, 314.856534)">
                    <path d="M0.660788382,3.87748428 L49.5893661,313.998571 L99.606246,3.90111855 C83.4640357,1.35199311 66.9200428,0.0127174912 50.0609262,0.0127174912 C33.2524545,0.0127174912 16.7568555,1.34298958 0.660788382,3.87748428" id="db_3_full" fill="#1E1E1E"></path>
                    <path d="M49.5894787,313.998233 L78.0271394,137.689913 C68.7478727,136.214459 59.2356394,135.43903 49.5422101,135.43903 C40.0907507,135.43903 30.811484,136.170567 21.7550546,137.573993 L49.5894787,313.998233 Z" id="db_3_single_inner" fill="#1E1E1E"></path>
                    <path d="M81.1639705,118.244419 C70.8639281,116.605776 60.3039087,115.743688 49.5413098,115.743688 C39.0465659,115.743688 28.7420218,116.557382 18.6850748,118.117244 L3.73020552,23.3336701 C18.825755,20.9567373 34.2960765,19.7086224 50.0601384,19.7086224 C65.8523363,19.7086224 81.3496684,20.961239 96.4699776,23.3471754 L81.1639705,118.244419 Z" id="db_3_single_outer" fill="#1E1E1E"></path>
                    <path d="M50.060476,19.7083973 C65.8515485,19.7083973 81.350006,20.961014 96.4691898,23.3469504 L99.6057958,3.90156873 C83.464711,1.35244329 66.9195926,0.0131676678 50.060476,0.0131676678 C33.2520043,0.0131676678 16.7564053,1.34343975 0.660338205,3.87793445 L3.73054315,23.3345705 C18.8260926,20.9565122 34.2964142,19.7083973 50.060476,19.7083973" id="db_3_double" fill="#B01800"></path>
                    <path d="M49.5416474,135.438805 C59.2350767,135.438805 68.7473099,136.214234 78.0277022,137.689688 L81.1643082,118.244307 C70.8631403,116.606789 60.3042463,115.743575 49.5416474,115.743575 C39.0469036,115.743575 28.7423594,116.558395 18.6854124,118.117132 L21.7544919,137.573768 C30.8120467,136.170342 40.0913135,135.438805 49.5416474,135.438805" id="db_3_triple" fill="#B01800"></path>
                    <text id="db_txt_3" transform="translate(51.459764, 78.055592) scale(-1, -1) rotate(2.000000) translate(-51.459764, -78.055592) " font-family="Monaco" font-size="54.0212014" font-weight="normal" fill="#FFFFFF">
                        <tspan x="34.9400543" y="96.0426251">3</tspan>
                    </text>
                </g>
                <g id="db_19" transform="translate(266.299640, 464.151245) rotate(198.000000) translate(-266.299640, -464.151245) translate(216.299640, 307.151245)">
                    <path d="M0.660788382,3.87748428 L49.5893661,313.998571 L99.606246,3.90111855 C83.4640357,1.35199311 66.9200428,0.0127174912 50.0609262,0.0127174912 C33.2524545,0.0127174912 16.7568555,1.34298958 0.660788382,3.87748428" id="db_19_full" fill="#D9D9D1"></path>
                    <path d="M49.5894787,313.998233 L78.0271394,137.689913 C68.7478727,136.214459 59.2356394,135.43903 49.5422101,135.43903 C40.0907507,135.43903 30.811484,136.170567 21.7550546,137.573993 L49.5894787,313.998233 Z" id="db_19_single_inner" fill="#D9D9D1"></path>
                    <path d="M81.1639705,118.244419 C70.8639281,116.605776 60.3039087,115.743688 49.5413098,115.743688 C39.0465659,115.743688 28.7420218,116.557382 18.6850748,118.117244 L3.73020552,23.3336701 C18.825755,20.9567373 34.2960765,19.7086224 50.0601384,19.7086224 C65.8523363,19.7086224 81.3496684,20.961239 96.4699776,23.3471754 L81.1639705,118.244419 Z" id="db_19_single_outer" fill="#D9D9D1"></path>
                    <path d="M50.060476,19.7083973 C65.8515485,19.7083973 81.350006,20.961014 96.4691898,23.3469504 L99.6057958,3.90156873 C83.464711,1.35244329 66.9195926,0.0131676678 50.060476,0.0131676678 C33.2520043,0.0131676678 16.7564053,1.34343975 0.660338205,3.87793445 L3.73054315,23.3345705 C18.8260926,20.9565122 34.2964142,19.7083973 50.060476,19.7083973" id="db_19_double" fill="#00591E"></path>
                    <path d="M49.5416474,135.438805 C59.2350767,135.438805 68.7473099,136.214234 78.0277022,137.689688 L81.1643082,118.244307 C70.8631403,116.606789 60.3042463,115.743575 49.5416474,115.743575 C39.0469036,115.743575 28.7423594,116.558395 18.6854124,118.117132 L21.7544919,137.573768 C30.8120467,136.170342 40.0913135,135.438805 49.5416474,135.438805" id="db_19_triple" fill="#00591E"></path>
                    <text id="db_txt_19" transform="translate(50.251439, 78.779751) scale(-1, -1) translate(-50.251439, -78.779751) " font-family="Monaco" font-size="54.0212014" font-weight="normal" fill="#FFFFFF">
                        <tspan x="17.5424138" y="96.7667845">19</tspan>
                    </text>
                </g>
                <g id="db_7" transform="translate(223.054758, 441.978472) rotate(216.000000) translate(-223.054758, -441.978472) translate(173.054758, 284.978472)">
                    <path d="M0.660788382,3.87748428 L49.5893661,313.998571 L99.606246,3.90111855 C83.4640357,1.35199311 66.9200428,0.0127174912 50.0609262,0.0127174912 C33.2524545,0.0127174912 16.7568555,1.34298958 0.660788382,3.87748428" id="db_7_full" fill="#1E1E1E"></path>
                    <path d="M49.5894787,313.998233 L78.0271394,137.689913 C68.7478727,136.214459 59.2356394,135.43903 49.5422101,135.43903 C40.0907507,135.43903 30.811484,136.170567 21.7550546,137.573993 L49.5894787,313.998233 Z" id="db_7_single_inner" fill="#1E1E1E"></path>
                    <path d="M81.1639705,118.244419 C70.8639281,116.605776 60.3039087,115.743688 49.5413098,115.743688 C39.0465659,115.743688 28.7420218,116.557382 18.6850748,118.117244 L3.73020552,23.3336701 C18.825755,20.9567373 34.2960765,19.7086224 50.0601384,19.7086224 C65.8523363,19.7086224 81.3496684,20.961239 96.4699776,23.3471754 L81.1639705,118.244419 Z" id="db_7_single_outer" fill="#1E1E1E"></path>
                    <path d="M50.060476,19.7083973 C65.8515485,19.7083973 81.350006,20.961014 96.4691898,23.3469504 L99.6057958,3.90156873 C83.464711,1.35244329 66.9195926,0.0131676678 50.060476,0.0131676678 C33.2520043,0.0131676678 16.7564053,1.34343975 0.660338205,3.87793445 L3.73054315,23.3345705 C18.8260926,20.9565122 34.2964142,19.7083973 50.060476,19.7083973" id="db_7_double" fill="#B01800"></path>
                    <path d="M49.5416474,135.438805 C59.2350767,135.438805 68.7473099,136.214234 78.0277022,137.689688 L81.1643082,118.244307 C70.8631403,116.606789 60.3042463,115.743575 49.5416474,115.743575 C39.0469036,115.743575 28.7423594,116.558395 18.6854124,118.117132 L21.7544919,137.573768 C30.8120467,136.170342 40.0913135,135.438805 49.5416474,135.438805" id="db_7_triple" fill="#B01800"></path>
                    <text id="db_txt_7" transform="translate(50.091902, 78.055592) scale(-1, -1) rotate(2.000000) translate(-50.091902, -78.055592) " font-family="Monaco" font-size="54.0212014" font-weight="normal" fill="#FFFFFF">
                        <tspan x="33.5721924" y="96.0426251">7</tspan>
                    </text>
                </g>
                <g id="db_16" transform="translate(187.939474, 406.927050) rotate(234.000000) translate(-187.939474, -406.927050) translate(137.939474, 249.927050)">
                    <path d="M0.660788382,3.87748428 L49.5893661,313.998571 L99.606246,3.90111855 C83.4640357,1.35199311 66.9200428,0.0127174912 50.0609262,0.0127174912 C33.2524545,0.0127174912 16.7568555,1.34298958 0.660788382,3.87748428" id="db_16_full" fill="#D9D9D1"></path>
                    <path d="M49.5894787,313.998233 L78.0271394,137.689913 C68.7478727,136.214459 59.2356394,135.43903 49.5422101,135.43903 C40.0907507,135.43903 30.811484,136.170567 21.7550546,137.573993 L49.5894787,313.998233 Z" id="db_16_single_inner" fill="#D9D9D1"></path>
                    <path d="M81.1639705,118.244419 C70.8639281,116.605776 60.3039087,115.743688 49.5413098,115.743688 C39.0465659,115.743688 28.7420218,116.557382 18.6850748,118.117244 L3.73020552,23.3336701 C18.825755,20.9567373 34.2960765,19.7086224 50.0601384,19.7086224 C65.8523363,19.7086224 81.3496684,20.961239 96.4699776,23.3471754 L81.1639705,118.244419 Z" id="db_16_single_outer" fill="#D9D9D1"></path>
                    <path d="M50.060476,19.7083973 C65.8515485,19.7083973 81.350006,20.961014 96.4691898,23.3469504 L99.6057958,3.90156873 C83.464711,1.35244329 66.9195926,0.0131676678 50.060476,0.0131676678 C33.2520043,0.0131676678 16.7564053,1.34343975 0.660338205,3.87793445 L3.73054315,23.3345705 C18.8260926,20.9565122 34.2964142,19.7083973 50.060476,19.7083973" id="db_16_double" fill="#00591E"></path>
                    <path d="M49.5416474,135.438805 C59.2350767,135.438805 68.7473099,136.214234 78.0277022,137.689688 L81.1643082,118.244307 C70.8631403,116.606789 60.3042463,115.743575 49.5416474,115.743575 C39.0469036,115.743575 28.7423594,116.558395 18.6854124,118.117132 L21.7544919,137.573768 C30.8120467,136.170342 40.0913135,135.438805 49.5416474,135.438805" id="db_16_triple" fill="#00591E"></path>
                    <text id="db_txt_16" transform="translate(49.125997, 78.779751) scale(-1, -1) translate(-49.125997, -78.779751) " font-family="Monaco" font-size="54.0212014" font-weight="normal" fill="#FFFFFF">
                        <tspan x="16.4169721" y="96.7667845">16</tspan>
                    </text>
                </g>
                <g id="db_8" transform="translate(165.854760, 364.030606) rotate(252.000000) translate(-165.854760, -364.030606) translate(115.854760, 207.030606)">
                    <path d="M0.660788382,3.87748428 L49.5893661,313.998571 L99.606246,3.90111855 C83.4640357,1.35199311 66.9200428,0.0127174912 50.0609262,0.0127174912 C33.2524545,0.0127174912 16.7568555,1.34298958 0.660788382,3.87748428" id="db_8_full" fill="#1E1E1E"></path>
                    <path d="M49.5894787,313.998233 L78.0271394,137.689913 C68.7478727,136.214459 59.2356394,135.43903 49.5422101,135.43903 C40.0907507,135.43903 30.811484,136.170567 21.7550546,137.573993 L49.5894787,313.998233 Z" id="db_8_single_inner" fill="#1E1E1E"></path>
                    <path d="M81.1639705,118.244419 C70.8639281,116.605776 60.3039087,115.743688 49.5413098,115.743688 C39.0465659,115.743688 28.7420218,116.557382 18.6850748,118.117244 L3.73020552,23.3336701 C18.825755,20.9567373 34.2960765,19.7086224 50.0601384,19.7086224 C65.8523363,19.7086224 81.3496684,20.961239 96.4699776,23.3471754 L81.1639705,118.244419 Z" id="db_8_single_outer" fill="#1E1E1E"></path>
                    <path d="M50.060476,19.7083973 C65.8515485,19.7083973 81.350006,20.961014 96.4691898,23.3469504 L99.6057958,3.90156873 C83.464711,1.35244329 66.9195926,0.0131676678 50.060476,0.0131676678 C33.2520043,0.0131676678 16.7564053,1.34343975 0.660338205,3.87793445 L3.73054315,23.3345705 C18.8260926,20.9565122 34.2964142,19.7083973 50.060476,19.7083973" id="db_8_double" fill="#B01800"></path>
                    <path d="M49.5416474,135.438805 C59.2350767,135.438805 68.7473099,136.214234 78.0277022,137.689688 L81.1643082,118.244307 C70.8631403,116.606789 60.3042463,115.743575 49.5416474,115.743575 C39.0469036,115.743575 28.7423594,116.558395 18.6854124,118.117132 L21.7544919,137.573768 C30.8120467,136.170342 40.0913135,135.438805 49.5416474,135.438805" id="db_8_triple" fill="#B01800"></path>
                    <text id="db_txt_8" transform="translate(50.091902, 78.055592) scale(1, -1) rotate(2.000000) translate(-50.091902, -78.055592) " font-family="Monaco" font-size="54.0212014" font-weight="normal" fill="#FFFFFF">
                        <tspan x="33.5721924" y="96.0426251">8</tspan>
                    </text>
                </g>
                <g id="db_11" transform="translate(158.180306, 314.572753) rotate(-90.000000) translate(-158.180306, -314.572753) translate(108.180306, 157.572753)">
                    <path d="M0.660788382,3.87748428 L49.5893661,313.998571 L99.606246,3.90111855 C83.4640357,1.35199311 66.9200428,0.0127174912 50.0609262,0.0127174912 C33.2524545,0.0127174912 16.7568555,1.34298958 0.660788382,3.87748428" id="db_11_full"></path>
                    <path d="M49.5894787,313.998233 L78.0271394,137.689913 C68.7478727,136.214459 59.2356394,135.43903 49.5422101,135.43903 C40.0907507,135.43903 30.811484,136.170567 21.7550546,137.573993 L49.5894787,313.998233 Z" id="db_11_single_inner" fill="#D9D9D1"></path>
                    <path d="M81.1639705,118.244419 C70.8639281,116.605776 60.3039087,115.743688 49.5413098,115.743688 C39.0465659,115.743688 28.7420218,116.557382 18.6850748,118.117244 L3.73020552,23.3336701 C18.825755,20.9567373 34.2960765,19.7086224 50.0601384,19.7086224 C65.8523363,19.7086224 81.3496684,20.961239 96.4699776,23.3471754 L81.1639705,118.244419 Z" id="db_11_single_outer" fill="#D9D9D1"></path>
                    <path d="M50.060476,19.7083973 C65.8515485,19.7083973 81.350006,20.961014 96.4691898,23.3469504 L99.6057958,3.90156873 C83.464711,1.35244329 66.9195926,0.0131676678 50.060476,0.0131676678 C33.2520043,0.0131676678 16.7564053,1.34343975 0.660338205,3.87793445 L3.73054315,23.3345705 C18.8260926,20.9565122 34.2964142,19.7083973 50.060476,19.7083973" id="db_11_double" fill="#00591E"></path>
                    <path d="M49.5416474,135.438805 C59.2350767,135.438805 68.7473099,136.214234 78.0277022,137.689688 L81.1643082,118.244307 C70.8631403,116.606789 60.3042463,115.743575 49.5416474,115.743575 C39.0469036,115.743575 28.7423594,116.558395 18.6854124,118.117132 L21.7544919,137.573768 C30.8120467,136.170342 40.0913135,135.438805 49.5416474,135.438805" id="db_11_triple" fill="#00591E"></path>
                    <text id="db_txt_11" font-family="Monaco" font-size="54.0212014" font-weight="normal" fill="#FFFFFF">
                        <tspan x="16.4169721" y="96.7667845">11</tspan>
                    </text>
                </g>
                <g id="db_14" transform="translate(165.508426, 266.465182) rotate(-72.000000) translate(-165.508426, -266.465182) translate(115.508426, 109.465182)">
                    <path d="M0.660788382,3.87748428 L49.5893661,313.998571 L99.606246,3.90111855 C83.4640357,1.35199311 66.9200428,0.0127174912 50.0609262,0.0127174912 C33.2524545,0.0127174912 16.7568555,1.34298958 0.660788382,3.87748428" id="db_14_full" fill="#1E1E1E"></path>
                    <path d="M49.5894787,313.998233 L78.0271394,137.689913 C68.7478727,136.214459 59.2356394,135.43903 49.5422101,135.43903 C40.0907507,135.43903 30.811484,136.170567 21.7550546,137.573993 L49.5894787,313.998233 Z" id="db_14_single_inner" fill="#1E1E1E"></path>
                    <path d="M81.1639705,118.244419 C70.8639281,116.605776 60.3039087,115.743688 49.5413098,115.743688 C39.0465659,115.743688 28.7420218,116.557382 18.6850748,118.117244 L3.73020552,23.3336701 C18.825755,20.9567373 34.2960765,19.7086224 50.0601384,19.7086224 C65.8523363,19.7086224 81.3496684,20.961239 96.4699776,23.3471754 L81.1639705,118.244419 Z" id="db_14_single_outer" fill="#1E1E1E"></path>
                    <path d="M50.060476,19.7083973 C65.8515485,19.7083973 81.350006,20.961014 96.4691898,23.3469504 L99.6057958,3.90156873 C83.464711,1.35244329 66.9195926,0.0131676678 50.060476,0.0131676678 C33.2520043,0.0131676678 16.7564053,1.34343975 0.660338205,3.87793445 L3.73054315,23.3345705 C18.8260926,20.9565122 34.2964142,19.7083973 50.060476,19.7083973" id="db_14_double" fill="#B01800"></path>
                    <path d="M49.5416474,135.438805 C59.2350767,135.438805 68.7473099,136.214234 78.0277022,137.689688 L81.1643082,118.244307 C70.8631403,116.606789 60.3042463,115.743575 49.5416474,115.743575 C39.0469036,115.743575 28.7423594,116.558395 18.6854124,118.117132 L21.7544919,137.573768 C30.8120467,136.170342 40.0913135,135.438805 49.5416474,135.438805" id="db_14_triple" fill="#B01800"></path>
                    <text id="db_txt_14" font-family="Monaco" font-size="54.0212014" font-weight="normal" fill="#FFFFFF">
                        <tspan x="18.6678555" y="96.7667845">14</tspan>
                    </text>
                </g>
                <g id="db_9" transform="translate(187.942550, 222.265760) rotate(-54.000000) translate(-187.942550, -222.265760) translate(137.942550, 65.265760)">
                    <path d="M0.660788382,3.87748428 L49.5893661,313.998571 L99.606246,3.90111855 C83.4640357,1.35199311 66.9200428,0.0127174912 50.0609262,0.0127174912 C33.2524545,0.0127174912 16.7568555,1.34298958 0.660788382,3.87748428" id="db_9_full" fill="#D9D9D1"></path>
                    <path d="M49.5894787,313.998233 L78.0271394,137.689913 C68.7478727,136.214459 59.2356394,135.43903 49.5422101,135.43903 C40.0907507,135.43903 30.811484,136.170567 21.7550546,137.573993 L49.5894787,313.998233 Z" id="db_9_single_inner" fill="#D9D9D1"></path>
                    <path d="M81.1639705,118.244419 C70.8639281,116.605776 60.3039087,115.743688 49.5413098,115.743688 C39.0465659,115.743688 28.7420218,116.557382 18.6850748,118.117244 L3.73020552,23.3336701 C18.825755,20.9567373 34.2960765,19.7086224 50.0601384,19.7086224 C65.8523363,19.7086224 81.3496684,20.961239 96.4699776,23.3471754 L81.1639705,118.244419 Z" id="db_9_single_outer" fill="#D9D9D1"></path>
                    <path d="M50.060476,19.7083973 C65.8515485,19.7083973 81.350006,20.961014 96.4691898,23.3469504 L99.6057958,3.90156873 C83.464711,1.35244329 66.9195926,0.0131676678 50.060476,0.0131676678 C33.2520043,0.0131676678 16.7564053,1.34343975 0.660338205,3.87793445 L3.73054315,23.3345705 C18.8260926,20.9565122 34.2964142,19.7083973 50.060476,19.7083973" id="db_9_double" fill="#00591E"></path>
                    <path d="M49.5416474,135.438805 C59.2350767,135.438805 68.7473099,136.214234 78.0277022,137.689688 L81.1643082,118.244307 C70.8631403,116.606789 60.3042463,115.743575 49.5416474,115.743575 C39.0469036,115.743575 28.7423594,116.558395 18.6854124,118.117132 L21.7544919,137.573768 C30.8120467,136.170342 40.0913135,135.438805 49.5416474,135.438805" id="db_9_triple" fill="#00591E"></path>
                    <text id="db_txt_9" transform="translate(50.091902, 77.798894) rotate(3.000000) translate(-50.091902, -77.798894) " font-family="Monaco" font-size="54.0212014" font-weight="normal" fill="#FFFFFF">
                        <tspan x="33.5721924" y="95.7859268">9</tspan>
                    </text>
                </g>
                <g id="db_12" transform="translate(222.246841, 188.181956) rotate(-36.000000) translate(-222.246841, -188.181956) translate(172.246841, 31.181956)">
                    <path d="M0.660788382,3.87748428 L49.5893661,313.998571 L99.606246,3.90111855 C83.4640357,1.35199311 66.9200428,0.0127174912 50.0609262,0.0127174912 C33.2524545,0.0127174912 16.7568555,1.34298958 0.660788382,3.87748428" id="db_12_full" fill="#1E1E1E"></path>
                    <path d="M49.5894787,313.998233 L78.0271394,137.689913 C68.7478727,136.214459 59.2356394,135.43903 49.5422101,135.43903 C40.0907507,135.43903 30.811484,136.170567 21.7550546,137.573993 L49.5894787,313.998233 Z" id="db_12_single_inner" fill="#1E1E1E"></path>
                    <path d="M81.1639705,118.244419 C70.8639281,116.605776 60.3039087,115.743688 49.5413098,115.743688 C39.0465659,115.743688 28.7420218,116.557382 18.6850748,118.117244 L3.73020552,23.3336701 C18.825755,20.9567373 34.2960765,19.7086224 50.0601384,19.7086224 C65.8523363,19.7086224 81.3496684,20.961239 96.4699776,23.3471754 L81.1639705,118.244419 Z" id="db_12_single_outer" fill="#1E1E1E"></path>
                    <path d="M50.060476,19.7083973 C65.8515485,19.7083973 81.350006,20.961014 96.4691898,23.3469504 L99.6057958,3.90156873 C83.464711,1.35244329 66.9195926,0.0131676678 50.060476,0.0131676678 C33.2520043,0.0131676678 16.7564053,1.34343975 0.660338205,3.87793445 L3.73054315,23.3345705 C18.8260926,20.9565122 34.2964142,19.7083973 50.060476,19.7083973" id="db_12_double" fill="#B01800"></path>
                    <path d="M49.5416474,135.438805 C59.2350767,135.438805 68.7473099,136.214234 78.0277022,137.689688 L81.1643082,118.244307 C70.8631403,116.606789 60.3042463,115.743575 49.5416474,115.743575 C39.0469036,115.743575 28.7423594,116.558395 18.6854124,118.117132 L21.7544919,137.573768 C30.8120467,136.170342 40.0913135,135.438805 49.5416474,135.438805" id="db_12_triple" fill="#B01800"></path>
                    <text id="db_txt_12" font-family="Monaco" font-size="54.0212014" font-weight="normal" fill="#FFFFFF">
                        <tspan x="16.4169721" y="96.7667845">12</tspan>
                    </text>
                </g>
                <g id="db_5" transform="translate(266.580617, 165.424062) rotate(-18.000000) translate(-266.580617, -165.424062) translate(216.580617, 8.424062)">
                    <path d="M0.660788382,3.87748428 L49.5893661,313.998571 L99.606246,3.90111855 C83.4640357,1.35199311 66.9200428,0.0127174912 50.0609262,0.0127174912 C33.2524545,0.0127174912 16.7568555,1.34298958 0.660788382,3.87748428" id="db_5_full" fill="#D9D9D1"></path>
                    <path d="M49.5894787,313.998233 L78.0271394,137.689913 C68.7478727,136.214459 59.2356394,135.43903 49.5422101,135.43903 C40.0907507,135.43903 30.811484,136.170567 21.7550546,137.573993 L49.5894787,313.998233 Z" id="db_5_single_inner" fill="#D9D9D1"></path>
                    <path d="M81.1639705,118.244419 C70.8639281,116.605776 60.3039087,115.743688 49.5413098,115.743688 C39.0465659,115.743688 28.7420218,116.557382 18.6850748,118.117244 L3.73020552,23.3336701 C18.825755,20.9567373 34.2960765,19.7086224 50.0601384,19.7086224 C65.8523363,19.7086224 81.3496684,20.961239 96.4699776,23.3471754 L81.1639705,118.244419 Z" id="db_5_single_outer" fill="#D9D9D1"></path>
                    <path d="M50.060476,19.7083973 C65.8515485,19.7083973 81.350006,20.961014 96.4691898,23.3469504 L99.6057958,3.90156873 C83.464711,1.35244329 66.9195926,0.0131676679 50.060476,0.0131676679 C33.2520043,0.0131676679 16.7564053,1.34343975 0.660338205,3.87793445 L3.73054315,23.3345705 C18.8260926,20.9565122 34.2964142,19.7083973 50.060476,19.7083973" id="db_5_double" fill="#00591E"></path>
                    <path d="M49.5416474,135.438805 C59.2350767,135.438805 68.7473099,136.214234 78.0277022,137.689688 L81.1643082,118.244307 C70.8631403,116.606789 60.3042463,115.743575 49.5416474,115.743575 C39.0469036,115.743575 28.7423594,116.558395 18.6854124,118.117132 L21.7544919,137.573768 C30.8120467,136.170342 40.0913135,135.438805 49.5416474,135.438805" id="db_5_triple" fill="#00591E"></path>
                    <text id="db_txt_5" transform="translate(50.091902, 77.798894) rotate(3.000000) translate(-50.091902, -77.798894) " font-family="Monaco" font-size="54.0212014" font-weight="normal" fill="#FFFFFF">
                        <tspan x="33.5721924" y="95.7859268">5</tspan>
                    </text>
                </g>
                <g id="db_25" transform="translate(282.987633, 282.987633)" stroke="#D9D9D1" stroke-width="2">
                    <ellipse id="db_25_full" fill="#00591E" cx="30.9496466" cy="30.9496466" rx="30.9496466" ry="30.9496466"></ellipse>
                    <ellipse id="db_25_single" fill="#00591E" cx="30.9496466" cy="30.9496466" rx="30.9496466" ry="30.9496466"></ellipse>
                    <ellipse id="db_25_double" fill="#B01900" cx="31.5123675" cy="31.5123675" rx="12.3798587" ry="12.3798587"></ellipse>
                </g>
            </g>
        </g>
    </g>
</svg>