<?xml version="1.0" encoding="UTF-8" standalone="no"?>
<svg width="18px" height="18px" viewBox="0 0 18 18" version="1.1" xmlns="http://www.w3.org/2000/svg" xmlns:xlink="http://www.w3.org/1999/xlink">
    <g stroke="none" stroke-width="1" fill="none" fill-rule="evenodd">
        <g transform="translate(-390.000000, -318.000000)" fill="#000000">
            <g transform="translate(399.000000, 327.000000) rotate(-180.000000) translate(-399.000000, -327.000000) translate(390.000000, 318.000000)">
                <path d="M16,0 L2,0 C0.9,0 0,0.9 0,2 L0,6 L0,12 L0,16 C0,17.1 0.9,18 2,18 L16,18 C17.1,18 18,17.1 18,16 L18,2 C18,0.9 17.1,0 16,0 L16,0 Z M8,14 L8,11 L2,11 L2,7 L8,7 L8,4 L13,9 L8,14 L8,14 Z" id="Shape"></path>
            </g>
        </g>
    </g>
</svg>
